/* XPM */
static char * collectible_xpm[] = {
"40 40 26 1",
" 	c None",
".	c #C88050",
"+	c #B86828",
"@	c #E0A040",
"#	c #D8A080",
"$	c #F8A040",
"%	c #A86040",
"&	c #C86040",
"*	c #C8A040",
"=	c #E0D078",
"-	c #A8A040",
";	c #98A060",
">	c #A08068",
",	c #F87000",
"'	c #F8B028",
")	c #F8A800",
"!	c #806850",
"~	c #F8E858",
"{	c #F0C070",
"]	c #F8D040",
"^	c #F8F8B8",
"/	c #F0D8A8",
"(	c #F0F0F0",
"_	c #F8F890",
":	c #F80000",
"<	c #F8F848",
"..++.+..@..@.##.#.$#@#......#..%%...&..#",
".+.++.+++.*.*@.$=$#@#@*..+...#.%-%%.....",
"..+.++...++.....#$.#*..........%%+...;..",
".%+.+#........-..#$@.....%..##.#%.%;..#>",
".-.....*.+...@.@#*.#.#.#.-.......-...>.+",
"....#....+.#.@@@@.@.#.....*..%......#.#.",
".###..;....+#*@.@@.@.*##.#...*...*@.*#.#",
"...*###@*.*+@.@@@.@+.#@.....+.+.+@.@.*#.",
"...##=$##$.$.#@..@++......++.+..@..@.##.",
"....+@.#$#$##@##.++........++.+++.*.*@.$",
"...@.#*.#@#*##.*#.........+.++...++.....",
".#..*..+*#@#@#$..,,,,,...#+.+#........-.",
"...@.++..#@#*..,,''')',,.......*.+...@.@",
"..+..+!..*#...,~{]'''']],...#....+.#.@@@",
"+...#...>..@.,~^/^]'']~~],##..;....+#*@.",
"+....##......,^(^^~'']~~],.*###@*.*+@.@@",
"....#..%%...,_(^(/,''],~~],##=$##$.$.#@.",
".....#.%-%%.,{((^,:,',:,~],.+@.#$#$##@##",
">-.....%%+..,]///~,')',~~],@.#*.#@#*##.*",
"....##.#%.%;,'<]~'''''']]',.*..+*#@#@#$.",
".........-..,)'',''),'')'',@.++..#@#*..@",
"*.*..%......#,',:,',:,)'',+..+!..*#...*.",
".....*...*@.*,)',)'','')',..#...>..@...@",
"....+.+.+@.@.*,)'')')')),....##.........",
"..++.+..@..@.##,,))))),,....#..%%...&..#",
".+.++.+++.*.*@.$=,,,,,*..+...#.%-%%.....",
"..+.++...++.....#$.#*..........%%+...;..",
".%+.+#........-..#$@.....%..##.#%.%;..#>",
".-.....*.+...@.@#*.#.#.#.-.......-...>.+",
"....#....+.#.@@@@.@.#.....*..%......#.#.",
".###..;....+#*@.@@.@.*##.#...*...*@.*#.#",
"...*###@*.*+@.@@@.@+.#@.....+.+.+@.@.*#.",
"...##=$##$.$.#@..@++......++.+..@..@.##.",
"....+@.#$#$##@##.++........++.+++.*.*@.$",
"...@.#*.#@#*##.*#.........+.++...++.....",
".#..*..+*#@#@#$.....++...#+.+#........-.",
"...@.++..#@#*..@......+........*.+...@.@",
"..+..+!..*#...*...+..*......#....+.#.@@@",
"+...#...>..@...@.@......+.##..;....+#*@.",
"+....##.........##.....++..*###@*.*+@.@@"};
