/* XPM */
static char * exit_xpm[] = {
"40 40 442 2",
"  	c #C88050",
". 	c #B86828",
"+ 	c #E0A040",
"@ 	c #D8A080",
"# 	c #F8A040",
"$ 	c #A86040",
"% 	c #C86040",
"& 	c #C8A040",
"* 	c #E0D078",
"= 	c #A8A040",
"- 	c #98A060",
"; 	c #A08068",
"> 	c #E3CDC7",
", 	c #E3CCC5",
"' 	c #E4D0C9",
") 	c #E3CDC6",
"! 	c #E5D2CC",
"~ 	c #DFC6BE",
"{ 	c #D8B3A1",
"] 	c #E0B158",
"^ 	c #E0C58F",
"/ 	c #E0C58E",
"( 	c #DB9348",
"_ 	c #D8B4A5",
": 	c #D7B5A9",
"< 	c #D7B4A8",
"[ 	c #D7B4A7",
"} 	c #D8B6A9",
"| 	c #D7AE9D",
"1 	c #DC9120",
"2 	c #E0AB3D",
"3 	c #E0AB3C",
"4 	c #E0AA3C",
"5 	c #DB8D37",
"6 	c #D8B5A9",
"7 	c #D7B4A9",
"8 	c #D6B4A8",
"9 	c #DFC4BB",
"0 	c #E5B65E",
"a 	c #ECD79D",
"b 	c #F8EBAC",
"c 	c #F8F1B9",
"d 	c #F5CB6E",
"e 	c #C26F08",
"f 	c #E59E3A",
"g 	c #EAC97B",
"h 	c #EAD9A3",
"i 	c #EAC36C",
"j 	c #C27514",
"k 	c #EBC063",
"l 	c #F7E3A7",
"m 	c #F9EAA9",
"n 	c #F8E9A8",
"o 	c #F6DFA1",
"p 	c #E2B04B",
"q 	c #CA8627",
"r 	c #EBBE52",
"s 	c #E6A13D",
"t 	c #D09A7D",
"u 	c #D2A999",
"v 	c #E3CEC7",
"w 	c #DD8E41",
"x 	c #F6CA64",
"y 	c #F8EEB3",
"z 	c #F8F0B8",
"A 	c #F8EEB5",
"B 	c #CF9854",
"C 	c #F0CA6E",
"D 	c #F7EAB0",
"E 	c #F8EEB4",
"F 	c #F9F2BA",
"G 	c #D0A065",
"H 	c #EDC465",
"I 	c #F8ECB0",
"J 	c #F8EDB5",
"K 	c #F8EFB7",
"L 	c #F7E7A6",
"M 	c #E3B14F",
"N 	c #E0BE84",
"O 	c #F8EBB1",
"P 	c #F3E4AD",
"Q 	c #E8A458",
"R 	c #D4A895",
"S 	c #DABDB1",
"T 	c #DDBDB0",
"U 	c #E18D23",
"V 	c #F7E3A8",
"W 	c #F3C785",
"X 	c #F6D074",
"Y 	c #CB9762",
"Z 	c #F2E4AC",
"` 	c #F3C37E",
" .	c #F4E0A7",
"..	c #F5DB9E",
"+.	c #F4D294",
"@.	c #EFDAA2",
"#.	c #DD8D34",
"$.	c #D8B7AB",
"%.	c #E8D4CA",
"&.	c #CC9040",
"*.	c #E1AE6F",
"=.	c #F3BD76",
"-.	c #F7E9AF",
";.	c #F6EBB3",
">.	c #EBD39C",
",.	c #E7D39E",
"'.	c #C58852",
").	c #F2DE9C",
"!.	c #F8F0B9",
"~.	c #D68F4A",
"{.	c #F7EEB6",
"].	c #F9F1B9",
"^.	c #E9D6A0",
"/.	c #CF923D",
"(.	c #CD8726",
"_.	c #D8A78E",
":.	c #E4CEC4",
"<.	c #DEAC52",
"[.	c #F9E7A1",
"}.	c #F9F4BC",
"|.	c #EFD59D",
"1.	c #E9C288",
"2.	c #EBC78D",
"3.	c #F6ECB5",
"4.	c #DEB179",
"5.	c #DE8F1F",
"6.	c #D79E37",
"7.	c #D58827",
"8.	c #DDA547",
"9.	c #F8E49C",
"0.	c #F8F1BA",
"a.	c #F8F2BA",
"b.	c #F8E9A6",
"c.	c #F5C463",
"d.	c #C27B3A",
"e.	c #E6D09B",
"f.	c #D9A550",
"g.	c #F7DD8E",
"h.	c #F8DD91",
"i.	c #EABA6D",
"j.	c #DBB594",
"k.	c #BF763D",
"l.	c #F7E5A2",
"m.	c #EED39A",
"n.	c #EDCD94",
"o.	c #ECCB91",
"p.	c #E9BF85",
"q.	c #F7EFB7",
"r.	c #D6AD75",
"s.	c #E7BA64",
"t.	c #F7DF9E",
"u.	c #F9E7A0",
"v.	c #F7DC9B",
"w.	c #E4B457",
"x.	c #D89D46",
"y.	c #F4C37E",
"z.	c #F4C37F",
"A.	c #F4BA62",
"B.	c #D6882E",
"C.	c #E3B357",
"D.	c #CD9E6A",
"E.	c #EFD693",
"F.	c #F9EEB1",
"G.	c #EAB86D",
"H.	c #D7A68C",
"I.	c #C27735",
"J.	c #F7EDB5",
"K.	c #F5E7AF",
"L.	c #F6EAB2",
"M.	c #E9D099",
"N.	c #DAB985",
"O.	c #F9F3BB",
"P.	c #E7BB80",
"Q.	c #DF9D59",
"R.	c #EDC365",
"S.	c #F8ECAE",
"T.	c #F8E9A9",
"U.	c #E7B857",
"V.	c #C6731F",
"W.	c #C67320",
"X.	c #C67220",
"Y.	c #E5B452",
"Z.	c #DFA86D",
"`.	c #F2E0A9",
" +	c #F8DC8E",
".+	c #CB8423",
"++	c #E1BBA9",
"@+	c #C58242",
"#+	c #F6D47A",
"$+	c #F8EFB5",
"%+	c #ECD9A1",
"&+	c #D1A672",
"*+	c #C88A51",
"=+	c #F5E8AE",
"-+	c #F8E7A5",
";+	c #F7D068",
">+	c #F7D06A",
",+	c #F7D06B",
"'+	c #F8EBAD",
")+	c #F7ECB2",
"!+	c #F3E7B0",
"~+	c #F8F0B7",
"{+	c #F7EBB2",
"]+	c #E3AA6C",
"^+	c #F4E5AD",
"/+	c #F0D9A0",
"(+	c #E8BD81",
"_+	c #FAE292",
":+	c #CC892C",
"<+	c #E7BB90",
"[+	c #CC8541",
"}+	c #E9A141",
"|+	c #F7D57E",
"1+	c #F8E8A7",
"2+	c #EBB955",
"3+	c #D1A774",
"4+	c #C68A53",
"5+	c #F5E2A1",
"6+	c #F5C059",
"7+	c #F0A040",
"8+	c #F0A141",
"9+	c #F6C764",
"0+	c #F8EFB6",
"a+	c #F8EDB4",
"b+	c #F3E1A9",
"c+	c #EEDEA8",
"d+	c #F6DCA0",
"e+	c #F2B467",
"f+	c #F2B366",
"g+	c #F6DB9A",
"h+	c #F7ECB3",
"i+	c #E1A262",
"j+	c #E5AA5F",
"k+	c #F8E196",
"l+	c #F8DD90",
"m+	c #CB8525",
"n+	c #ED9D3D",
"o+	c #D07E27",
"p+	c #E09B3C",
"q+	c #EDBB51",
"r+	c #F6C256",
"s+	c #F6C255",
"t+	c #F4BE53",
"u+	c #DB8A2F",
"v+	c #DCA566",
"w+	c #F8E2A1",
"x+	c #F8E7A2",
"y+	c #D5944B",
"z+	c #ECB249",
"A+	c #F0A44A",
"B+	c #F8E5A0",
"C+	c #F2D18B",
"D+	c #D7934E",
"E+	c #CFA26E",
"F+	c #CFA16D",
"G+	c #D1A06A",
"H+	c #E3A254",
"I+	c #F9ECAC",
"J+	c #F8F2BB",
"K+	c #F8E297",
"L+	c #F8EDB0",
"M+	c #F8EEB1",
"N+	c #EBBB72",
"O+	c #D6A388",
"P+	c #D88C45",
"Q+	c #D5832B",
"R+	c #D5822A",
"S+	c #DB8A31",
"T+	c #F1A03E",
"U+	c #F2AD46",
"V+	c #F4B84B",
"W+	c #F1A23D",
"X+	c #E68D27",
"Y+	c #F09F3F",
"Z+	c #F1A140",
"`+	c #F1A141",
" @	c #F1A342",
".@	c #F1B64B",
"+@	c #D9A757",
"@@	c #E9D7A2",
"#@	c #FAF3BC",
"$@	c #F9F2BB",
"%@	c #DBB77E",
"&@	c #E4B262",
"*@	c #F7D891",
"=@	c #F8DF9C",
"-@	c #D38A10",
";@	c #D48539",
">@	c #E8983A",
",@	c #DE8E33",
"'@	c #DF8E33",
")@	c #E09035",
"!@	c #F09E3A",
"~@	c #F4CA89",
"{@	c #F5DA9E",
"]@	c #F6D898",
"^@	c #F4BB52",
"/@	c #F1A040",
"(@	c #DC8A2F",
"_@	c #CC771B",
":@	c #CC771C",
"<@	c #D08A46",
"[@	c #EBDAA5",
"}@	c #F9E9A5",
"|@	c #F8DB85",
"1@	c #F8DC87",
"2@	c #EEDFA9",
"3@	c #CC7515",
"4@	c #F2A842",
"5@	c #F6CF76",
"6@	c #F8EDB2",
"7@	c #F8EFB4",
"8@	c #F7D684",
"9@	c #E5A863",
"0@	c #BE6300",
"a@	c #C67A42",
"b@	c #E08F33",
"c@	c #E1BA82",
"d@	c #F8D983",
"e@	c #F2B464",
"f@	c #F1A846",
"g@	c #DE8D31",
"h@	c #DDBB86",
"i@	c #EBDAA4",
"j@	c #C58A53",
"k@	c #F7E0A5",
"l@	c #F1AC55",
"m@	c #F1A945",
"n@	c #F2AB47",
"o@	c #F7D47A",
"p@	c #EDDBA5",
"q@	c #CD7A1D",
"r@	c #F1A244",
"s@	c #F1A949",
"t@	c #F2B261",
"u@	c #F1B162",
"v@	c #E79E3E",
"w@	c #D38128",
"x@	c #CD7700",
"y@	c #D1884C",
"z@	c #EC9C3C",
"A@	c #EC9B3D",
"B@	c #EC9C3D",
"C@	c #E69537",
"D@	c #D2A570",
"E@	c #F7EFB8",
"F@	c #F8DA86",
"G@	c #F2AB49",
"H@	c #E59335",
"I@	c #D7AC77",
"J@	c #F7EDB3",
"K@	c #F7EBB1",
"L@	c #C5772F",
"M@	c #F1A64D",
"N@	c #DC8B30",
"O@	c #DD8C32",
"P@	c #E99D3F",
"Q@	c #CD833A",
"R@	c #F1B350",
"S@	c #F8DF96",
"T@	c #F6CD6E",
"U@	c #C67620",
"V@	c #C9761F",
"W@	c #D38642",
"X@	c #C9937A",
"Y@	c #CB977F",
"Z@	c #BD6E35",
"`@	c #ED9C3D",
" #	c #E59436",
".#	c #D1A874",
"+#	c #F2BD75",
"@#	c #F0A03F",
"##	c #EB9836",
"$#	c #E8B775",
"%#	c #F8D986",
"&#	c #F2AC49",
"*#	c #EE9F42",
"=#	c #CC7A23",
"-#	c #E9993B",
";#	c #D88E33",
">#	c #C88E53",
",#	c #CC945C",
"'#	c #F2BB6C",
")#	c #F8DE8D",
"!#	c #F7E7AA",
"~#	c #F6D17B",
"{#	c #E39237",
"]#	c #CE7B21",
"^#	c #DB9354",
"/#	c #DE8F3C",
"(#	c #EA993A",
"_#	c #D69E62",
":#	c #EFDC9E",
"<#	c #F3B968",
"[#	c #F2AF49",
"}#	c #F2AE49",
"|#	c #F09F40",
"1#	c #D28028",
"2#	c #E79639",
"3#	c #F5B74E",
"4#	c #F6D591",
"5#	c #F6D99C",
"6#	c #F5D89C",
"7#	c #F5D088",
"8#	c #F3AF46",
"9#	c #F19F3F",
"0#	c #E08F34",
"a#	c #BD6300",
"b#	c #DB9355",
"c#	c #D4801B",
"d#	c #C86F00",
"e#	c #DA942D",
"f#	c #F3A946",
"g#	c #EA9A3C",
"h#	c #D38129",
"i#	c #EB9938",
"j#	c #F19F3B",
"k#	c #F1A03D",
"l#	c #E2902D",
"m#	c #D37E0A",
"n#	c #BC6400",
"o#	c #DBB09B",
"p#	c #CA7300",
"q#	c #EB9B3C",
"r#	c #C77215",
"s#	c #C6710E",
"t#	c #CA7616",
"u#	c #CD9270",
"v#	c #C57739",
"w#	c #C47639",
"x#	c #DF903D",
"y#	c #EF9F3F",
"z#	c #EE9E3F",
"A#	c #EF9E3F",
"B#	c #E3943D",
"C#	c #C3712C",
"D#	c #DEC0B4",
"E#	c #C5825C",
"F#	c #C5845F",
"G#	c #C5835E",
"H#	c #D7B1A1",
"I#	c #806850",
"    . .   .     +     +   @ @   @   # @ + @             @     $ $       %     @ ",
"  .   . .   . . .   &   & +   # * # @ + @ + &     .       @   $ = $ $           ",
"    .   . .       . .           @ #   @ &                     $ $ .       -     ",
"  $ .   . @                 =     @ # +           $     @ @   @ $   $ -     @ ; ",
"  =           &   .       +   + @ &   @   @   @   =               =       ;   . ",
"        @         .   @   + + + +   +   @           &     $             @   @   ",
"  @ @ @     -         . @ & +   + +   +   & @ @   @       &       & +   & @   @ ",
"      & @ @ @ + &   & . +   + + +   + .   @ +           .   .   . +   +   & @   ",
"      @ @ * # @ @ # > , , , '     + . .     ) ) ) ) ! .   .     +     +   @ @   ",
"        . +   @ ~ { ] ^ / / ( _ : < [ < } | 1 2 3 4 5 [ 6 7 8 . .   &   & +   # ",
"      +   @ & 9 0 a b c c c d e f g h i j k l m n n o p q r s t u . .           ",
"  @     &   v w x y z z z A B C D E F G H I z z z J K L M N O P Q R         =   ",
"      +   S T U V z z z c W X y z z F Y Z z z z c `  .z ..+.c z @.#.$.    +   + ",
"    .   %.&.*.=.-.c z z z z z z ;.>.,.'.).z z z !.n ~.{.z z ].^./.(._.@   + + + ",
".     :.<.[.}.|.1.2.c z z z z 3.4.5.6.7.8.9.0.a.b.c.d.{.z ].e.f.g.h.i.j.@ & +   ",
".     k.l.0.m.1.n.o.p.F z c q.r.s.t.u.v.w.x.y.z.A.B.C.K z F D.E.z c F.G.H.  + + ",
"      I.J.z K.L.c K M.N.O.P.Q.R.S.z z z T.U.V.W.X.Y.L z z F Z.`.z z !. +.++++   ",
"      @+#+$+z z z z %+&+F ;.*+=+-+;+>+,+'+)+!+!+!+)+~+K {+{+L.]+^+/+(+_+:+<+@ @ ",
"; =   [+}+|+'+b b 1+2+3+F c 4+5+6+7+8+8+9+0+a+b+c+c+c+d+e+f+g+h+i+j+k+l+m+++  & ",
"      n+o+p+q+r+s+t+u+v+w+x+y+z+7+7+7+7+A+B+C+D+E+F+G+H+I+J+K+L+c c M+N+O+@ #   ",
"      P+n+Q+R+R+R+R+S+T+U+V+W+X+Y+7+Z+`+ @.@+@@@#@$@{.%@&@*@L+!.z 0.=@-@&     + ",
"&   &   ;@`+>@,@'@)@7+7+!@~@{@]@^@/@(@_@:@<@[@}@|@1@$+2@3@4@5@6@7@8@9@0@    &   ",
"        a@7+7+7+7+7+7+b@c@a+d@e@f@g@h@2@i@j@k@l@m@n@o@p@q@r@s@t@u@v@w@x@      + ",
"        . y@z@A@B@7+C@D@E@F@G@7+H@I@J@K@^+L@M@N@O@B@P@Q@R@S@D T@U@V@n+W@        ",
"    . .   . X@Y@Z@`@ #.#}.+#@#7+##$#%#&#*#=#-#Z+;#>#,#'#)#!#~#f@{#]#^#  %     @ ",
"  .   . .   . . . /#(#_#:#<#@#7+7+[#}#|#7+B@1#2#3#4#5#6#7#8#9#0#a#b#$           ",
"    .   . .       . c#d#e#f#7+7+7+|#|#7+7+7+g#Q+h#i#j#j#k#l#m#n#$ .       -     ",
"  $ .   . @             o#p#q#7+7+7+7+7+7+7+7+g#r#s#t#t#p#@   @ $   $ -     @ ; ",
"  =           &   .       + u#v#v#w#x#y#z#A#B#C#  =               =       ;   . ",
"        @         .   @   + + + +   D#E#F#G#H#      &     $             @   @   ",
"  @ @ @     -         . @ & +   + +   +   & @ @   @       &       & +   & @   @ ",
"      & @ @ @ + &   & . +   + + +   + .   @ +           .   .   . +   +   & @   ",
"      @ @ * # @ @ #   #   @ +     + . .             . .   .     +     +   @ @   ",
"        . +   @ # @ # @ @ + @ @   . .                 . .   . . .   &   & +   # ",
"      +   @ &   @ + @ & @ @   & @                   .   . .       . .           ",
"  @     &     . & @ + @ + @ #           . .       @ .   . @                 =   ",
"      +   . .     @ + @ &     +             .                 &   .       +   + ",
"    .     . I#    & @       &       .     &             @         .   @   + + + ",
".       @       ;     +       +   +             .   @ @     -         . @ & +   ",
".         @ @                   @ @           . .     & @ @ @ + &   & . +   + + "};
