/* XPM */
static char * stand_xpm[] = {
"40 40 32 1",
" 	c None",
".	c #C88050",
"+	c #B86828",
"@	c #E0A040",
"#	c #D8A080",
"$	c #F8A040",
"%	c #A86040",
"&	c #C86040",
"*	c #C8A040",
"=	c #E0D078",
"-	c #A8A040",
";	c #98A060",
">	c #000000",
",	c #A08068",
"'	c #805018",
")	c #A87838",
"!	c #D8A860",
"~	c #806850",
"{	c #F0C070",
"]	c #A0A0A0",
"^	c #F8F8F8",
"/	c #505050",
"(	c #200080",
"_	c #3010A8",
":	c #A84800",
"<	c #703800",
"[	c #D06000",
"}	c #4020D0",
"|	c #F87000",
"1	c #C09050",
"2	c #A06830",
"3	c #F8B028",
"..++.+..@..@.##.#.$#@#......#..%%...&..#",
".+.++.+++.*.*@.$=$#@#@*..+...#.%-%%.....",
"..+.++...++.....#$.#*..........%%+...;..",
".%+.+#........-..>>>>....%..##.#%.%;..#,",
".-.....*.+>>>>>@#*>>>>.#.-.......-...,.+",
"....#....+.>>>>>>.>>>>....*..%......#.#.",
".###..;....+>>>>>>>>>>>>>#...*...*@.*#.#",
"...*###@*.*+@>>>>>>>>>>>>>..+.+.+@.@.*#.",
"...##=$##$>>>>>>>>>>>>>>>>>+.+..@..@.##.",
"....+@.#>>>>>>>>>>>>>>>>>>>++.+++.*.*@.$",
"...@.#*>>>>>>>>>>'>>'>>'>>>.++...++.....",
".#..*..+*#>>>>>>'>>>)>>)'>>>+#........-.",
"...@.++..#@#>>>>>>>'!>')>>>>>>.*.+...@.@",
"..+..+~..>>>>>>)>>>>)>>>>'>>>>>>.+.#.@@@",
"+...#...,..>>>){)>]>!>]!)!'>..;....+#*@.",
"+....##......>)!){^/!/^!')'>>##@*.*+@.@@",
"....#..%%...>>>)'!^>{>^)''>>>>>##$.$.#@.",
".....#.%-%%....>>)!{{!)'>>..+@.#$#$##@##",
",-.....%%+...(_:::)))''<<<_(.#*.#@#*##.*",
"....##.#%.%;.((<[[:_}(<:[<((*..+*#@#@#$.",
".........-...){(:||:_<:[:()'.++..#@#*..@",
"*.*..%......#')):[||::[:<'''.+~..*#...*.",
".....*...*@.)!!)'(_}}}_(')!)'...,..@...@",
"....+.+.+@.@(_}(#(__((((.(}_(##.........",
"..++.+..@..@(__(<:[[:[:<<(__(..%%...&..#",
".+.++.+++.*.(1{':[|:::[:<'{1(#.%-%%.....",
"..+.++...++.')!':||[<[|[<'!)'..%%+...;..",
".%+.+#.......''.:||[<[|[<%''##.#%.%;..#,",
".-.....*.+...@.@:[|:<:[:<-.......-...,.+",
"....#....+.#.@@@(<<<#<<<(.*..%......#.#.",
".###..;....+#*@.(2_(.(_2(#...*...*@.*#.#",
"...*###@*.*+@.@@<|[:>:|[<...+.+.+@.@.*#.",
"...##=$##$.$.#@(3_('>'((3(++.+..@..@.##.",
"....+@.#$#$##@#22''>>>22''.++.+++.*.*@.$",
"...@.#*.#@#*##.*>>>>>>>>..+.++...++.....",
".#..*..+*#@#@#$.....++...#+.+#........-.",
"...@.++..#@#*..@......+........*.+...@.@",
"..+..+~..*#...*...+..*......#....+.#.@@@",
"+...#...,..@...@.@......+.##..;....+#*@.",
"+....##.........##.....++..*###@*.*+@.@@"};
