/* XPM */
static char * wall_xpm[] = {
"40 40 20 1",
" 	c None",
".	c #A86040",
"+	c #C88050",
"@	c #B86828",
"#	c #E0A040",
"$	c #D8A080",
"%	c #C8A040",
"&	c #A8A040",
"*	c #885028",
"=	c #806850",
"-	c #98A060",
";	c #A08068",
">	c #F8A040",
",	c #C8A890",
"'	c #603820",
")	c #404040",
"!	c #282828",
"~	c #604840",
"{	c #C86040",
"]	c #E0D078",
"..+@+++#+#$%+$+++$+&+@+@@++$#$.++#++++++",
"+.*@+$+####+#+*.++++*.+@=++%+*++%+++@++.",
"-+.*.@$@#+##+..%$$+.**$+++;++*+++#+#+.**",
"$#%+*@@*.##+%@+$#++***+$$++++*++++$$.*.+",
">$$>.**;@.+#@@+++++*.*+++..++..++$++*+++",
"+$>,#$$#$.****+++++')'+$+.&.*++++.*.++++",
"%+$#$%$$+&.*'++++++)!~+++..*+++-++.=+$+$",
"+@%$#$#$>+*)'+@@+++''*$$+$*..-++$;*+++$+",
"@++$#$%++#+)'+++@++')**.+..&+++;+*@;+$++",
"=++%$+++%++'!~+%+++~'+.*.*++++$+$.++++$$",
".*;++#+++#.'''.+++@*=++%**+%#+%$..$+$#%+",
"$*++++++++'$++~.+@'.++@+*.@#+#+%+.$$#+>+",
"+.*+.+{++..$+$.*..*+@@+@.*@.+#+$;.$+>$#$",
"+.*.***...+++++*~*.++@@+@*****@%*@&+$#$#",
"+*.@++.=*++;+$++*.;&@+@@+*=@@+.*.++++$%+",
"*..+.-++.;++++$+*+++@+@$+~*++++.*++$>#++",
".++&+++;+*@;+$++;*.++++++*.@+++@.#$%+$+$",
"++++++$+$*++++$$+'~.++$+''+@+$+%.##+#+$+",
"+++%#+%$+*;+$#%+;'**..*~''+++@$%*+##.@..",
"@+@#+#+%$**$#+#+'*...&++=*%..@%+@+#+@@.$",
"++#++#+$+~****..*++++$$]@*;.@+..***+@@++",
"@@****@*****;#$#%*.@++@#+***+$$#$$+*@+++",
"+*******~''*+$%+++*.+#+$%.*.$%$$+%$*++++",
"..**'''*'~'$>#++++.***&.***'*$#$>+.*++@@",
".&.**=.~''~%+$+$+$*&++**~'')''%++@''++++",
"+++@+$+#'**+#+$++..+@+*''~*.$**.*='+@++%",
"=++++@$%***.+#+%$.+$+*=+++;++%*.+#+#.+++",
".@%+%@#++****@+$%.++**.$$+++++*+++$$.++*",
"@;$>+>+$#*~#.****.++*..++..+++*++$+$*+..",
".$>,>,$#$**@@+*~'.**.+*++.&..+*+++++*..+",
"%+$#$%$$.**++++*=+..+++.+..@+..-+++;.*+$",
"+@%$#$#+*.*+++@*+++$++$..$.+.*++$;++***.",
"@++$#+%**#..+++*@++++++.**.*.*.;+@@;*$++",
"=++@****%++*@+.@++++%++.~..+.***...*++$$",
"++=****.+#+%..*+++@++++.'++%#*&$+.**$#%+",
"$.*****+++$$+*'.+@@++.**'.@#+*+%$+;.#+>+",
"++=****.+#+%..*+++@++++.'++%#*&$+.**$#%+",
"+.**''.++$+$+~=.*..+**+@+*@..*+$$+$*>$#$",
".*.**.+++++..+++++**+@@+@@@+%+*#+>]>,#$#",
"...@+++-+++=.$+$++=**+@@+++@@+.*++$>+$%+"};
