/* XPM */
static char * move_0_xpm[] = {
"40 40 35 1",
" 	c None",
".	c #C88050",
"+	c #B86828",
"@	c #E0A040",
"#	c #D8A080",
"$	c #F8A040",
"%	c #A86040",
"&	c #C86040",
"*	c #C8A040",
"=	c #E0D078",
"-	c #A8A040",
";	c #98A060",
">	c #A08068",
",	c #000000",
"'	c #805018",
")	c #A87838",
"!	c #806850",
"~	c #D8A860",
"{	c #F0C070",
"]	c #A0A0A0",
"^	c #F8F8F8",
"/	c #505050",
"(	c #200080",
"_	c #3010A8",
":	c #184000",
"<	c #4020D0",
"[	c #A84800",
"}	c #703800",
"|	c #486800",
"1	c #D06000",
"2	c #C09050",
"3	c #F87000",
"4	c #884800",
"5	c #A86828",
"6	c #F8B028",
"..++.+..@..@.##.#.$#@#......#..%%...&..#",
".+.++.+++.*.*@.$=$#@#@*..+...#.%-%%.....",
"..+.++...++.....#$.#*..........%%+...;..",
".%+.+#........-..#$@.....%..##.#%.%;..#>",
".-.....*.+...@.@#,,,,#.#.-.......-...>.+",
"....#....+,,,,,@@.,,,,....*..%......#.#.",
".###..;....,,,,,,@,,,,##.#...*...*@.*#.#",
"...*###@*.*+,,,,,,,,,,,,,...+.+.+@.@.*#.",
"...##=$##$.$.,,,,,,,,,,,,,++.+..@..@.##.",
"....+@.#$#,,,,,,,,,,,,,,,,,++.+++.*.*@.$",
"...@.#*.,,,,,,,,,,,,,,,,,,,.++...++.....",
".#..*..,,,,,,,,,,',,',,',,,.+#........-.",
"...@.++..#,,,,,,',,,),,)',,,...*.+...@.@",
"..+..+!..*#.,,,,,,,'~,'),,,,,,...+.#.@@@",
"+...#...>,,,,,,),,,,),,,,',,,,,,...+#*@.",
"+....##....,,,){),],,,]~)~',###@*.*+@.@@",
"....#..%%...&,)~){^/~/^~')',,=$##$.$.#@.",
".....#.%-%%.,,,)'~)){,^)'',,,,,#$#$##@##",
">-.....%%+...;(_'){'{~)'((:@.#*.#@#*##.*",
"....##.#%.%;.(<_()~''''[}_(|*..+*#@#@#$.",
".........-...'~)(')'~'(1[('@.++..#@#*..@",
"*.*..%......'))_<)~{'([1})2'.+!..*#...*.",
".....*...*@.'{~<_){)'[1}'(_'#...>..@...@",
"....+.+.+@.@')~)('''__(}''_(.##.........",
"..++.+..@..@.''''((___['~2'(#..%%...&..#",
".+.++.+++.*.*@.}[[[[}[1')~'..#.%-%%.....",
"..+.++...++...}[11[}}}}[''}....%%+...;..",
".%+.+#........[131[}.}[11[}.##.#%.%;..#>",
".-.....*.+...@[131}#.((}}}.......-...>.+",
"....#....+.#.@}[1[}.#(([(.*..%......#.#.",
".###..;....+#*(}}}.@.44444...*...*@.*#.#",
"...*###@*.*+@.(5_(,,,,,,....+.+.+@.@.*#.",
"...##=$##$.$.(}31},,,,,,,.++.+..@..@.##.",
"....+@.#$#$##(_6_(,,,,,,,..++.+++.*.*@.$",
"...@.#*.#@#*#45554,,,,,,..+.++...++.....",
".#..*..+*#@#@#$.....++...#+.+#........-.",
"...@.++..#@#*..@......+........*.+...@.@",
"..+..+!..*#...*...+..*......#....+.#.@@@",
"+...#...>..@...@.@......+.##..;....+#*@.",
"+....##.........##.....++..*###@*.*+@.@@"};
