/* XPM */
static char * move_3_xpm[] = {
"40 40 32 1",
" 	c None",
".	c #C88050",
"+	c #B86828",
"@	c #E0A040",
"#	c #D8A080",
"$	c #F8A040",
"%	c #A86040",
"&	c #C86040",
"*	c #C8A040",
"=	c #E0D078",
"-	c #A8A040",
";	c #98A060",
">	c #A08068",
",	c #000000",
"'	c #FFFFFF",
")	c #805018",
"!	c #806850",
"~	c #A87838",
"{	c #F0C070",
"]	c #D8A860",
"^	c #486800",
"/	c #3010A8",
"(	c #200080",
"_	c #184000",
":	c #4020D0",
"<	c #703800",
"[	c #D06000",
"}	c #C09050",
"|	c #A84800",
"1	c #F87000",
"2	c #884800",
"3	c #A86828",
"..++.+..@..@.##.#.$#@#......#..%%...&..#",
".+.++.+++.*.*@.$=$#@#@*..+...#.%-%%.....",
"..+.++...++.....#$.#*..........%%+...;..",
".%+.+#........-..#$@.....%..##.#%.%;..#>",
".-.....*.+...@.@#,.,.#.#.-.......-...>.+",
"....#....+,,.,@,@.@,#,....*..%......#.#.",
".###..;....,#,,,@,.,.,##.#...*...*@.*#.#",
"...*###@*.*+@,@,@,@,.,@,....+.+.+@.@.*#.",
"...##=$##$.$.#@,.,+,.,.,..++.+..@..@.##.",
"....+@.#$#$##,,,.,+,.,,,.,.++.+++.*.*@.$",
"...@.#*.#@,*#,.,#,,,.,',.,+.++...++.....",
".#..*..+,#,,@,$,),',+,').,+.+#........-.",
"...@.++..#,#*,.,),,,.,').,.....*.+...@.@",
"..+..+!..*#...*,,,+,.,'~.,.,#....+.#.@@@",
"+...#...>,.@.,.~',.,.,',+)#,.,;....+#*@.",
"+....##....,.,.{',.,.,']+].*###@*.*+@.@@",
"....#..%%...&,~]',.,.,'].~.,#=$##$.$.#@.",
".....#.%-%%....~'].,.,',^).,+,.#$#$##@##",
">-.....%%+...;./',.,.,^)'(_@.#*.#@#*##.*",
"....##.#%.%;.(:/'~.,#,','/_^*..+*#@#@#$.",
".........-...).~').,.,','(.@.++..#@#*..@",
"*.*..%......#~#/'~.,#,<['~+).+!..*#...*.",
".....*...*@.*{.:'~#,*,<,'(.)#...>..@...@",
"....+.+.+@.@.~#~',@,$,'<').(.##.........",
"..++.+..@..@.)#)',$,@,')'}.(#..%%...&..#",
".+.++.+++.*.*@.<',#,#|')'])..#.%-%%.....",
"..+.++...++....|'[.,*<'|)).....%%+...;..",
".%+.+#........-[',$,.,'['|<.##.#%.%;..#>",
".-.....*.+...@.[1[.,.,'<'<.......-...>.+",
"....#....+.#.@@|'|<,#('|(.*..%......#.#.",
".###..;....+#*@<'<.@.2'2.2...*...*@.*#.#",
"...*###@*.*+@.@3,,,,,,,,....+.+.+@.@.*#.",
"...##=$##$.$.(@,,,,,,,,,,.++.+..@..@.##.",
"....+@.#$#$##(#,,,,,,,,,,..++.+++.*.*@.$",
"...@.#*.#@#*##.3,,,,,,,,..+.++...++.....",
".#..*..+*#@#@#$.....++...#+.+#........-.",
"...@.++..#@#*..@......+........*.+...@.@",
"..+..+!..*#...*...+..*......#....+.#.@@@",
"+...#...>..@...@.@......+.##..;....+#*@.",
"+....##.........##.....++..*###@*.*+@.@@"};
