/* XPM */
static char * move_1_xpm[] = {
"40 40 15 1",
" 	c None",
".	c #C88050",
"+	c #B86828",
"@	c #E0A040",
"#	c #D8A080",
"$	c #F8A040",
"%	c #A86040",
"&	c #C86040",
"*	c #C8A040",
"=	c #E0D078",
"-	c #A8A040",
";	c #98A060",
">	c #A08068",
",	c #000000",
"'	c #806850",
"..++.+..@..@.##.#.$#@#......#..%%...&..#",
".+.++.+++.*.*@.$=$#@#@*..+...#.%-%%.....",
"..+.++...++.....#$.#*..........%%+...;..",
".%+.+#........-..#$@.....%..##.#%.%;..#>",
".-.....*.+...@.@#*.,.#.#.-.......-...>.+",
"....#....+.#.@@@@.@.#.....*..%......#.#.",
".###..;....+#*@.@@.,.*##.#...*...*@.*#.#",
"...*###@*.*+@.@@@.@,.#@.....+.+.+@.@.*#.",
"...##=$##$.$.#@..@+,......++.+..@..@.##.",
"....+@.#$#$##@##.++,.,.....++.+++.*.*@.$",
"...@.#*.#@#*##.*#..,......+.++...++.....",
".#..*..+*#@#@#$....,+,...#+.+#........-.",
"...@.++..#@#*..@...,.,+........*.+...@.@",
"..+..+'..*#...*..,+,.,......#....+.#.@@@",
"+...#...>,.@...@.@.,.,..+.##..;....+#*@.",
"+....##.........#,.,.,.++..*###@*.*+@.@@",
"....#..%%...&..#.,.,.,.....##=$##$.$.#@.",
".....#.%-%%........,.,.,....+@.#$#$##@##",
">-.....%%+...;...,.,.,..>-.@.#*.#@#*##.*",
"....##.#%.%;..#>...,#,.,....*..+*#@#@#$.",
".........-...>.++>.,.,#,...@.++..#@#*..@",
"*.*..%......#.#....,#,.%*.+..+'..*#...*.",
".....*...*@.*#.##.#,*,>,....#...>..@...@",
"....+.+.+@.@.*#.#,@,$,*......##.........",
"..++.+..@..@.##.#,$,@,......#..%%...&..#",
".+.++.+++.*.*@.$=,#,#@*..+...#.%-%%.....",
"..+.++...++.....#$.,*..........%%+...;..",
".%+.+#........-..,$,.,...%..##.#%.%;..#>",
".-.....*.+...@.@#*.,.,.#.-.......-...>.+",
"....#....+.#.@@@@.@,#.....*..%......#.#.",
".###..;....+#*@.@@.@.*##.#...*...*@.*#.#",
"...*###@*.*+@.@@,,,,,,,,....+.+.+@.@.*#.",
"...##=$##$.$.#@,,,,,,,,,,.++.+..@..@.##.",
"....+@.#$#$##@#,,,,,,,,,,..++.+++.*.*@.$",
"...@.#*.#@#*##.*,,,,,,,,..+.++...++.....",
".#..*..+*#@#@#$.....++...#+.+#........-.",
"...@.++..#@#*..@......+........*.+...@.@",
"..+..+'..*#...*...+..*......#....+.#.@@@",
"+...#...>..@...@.@......+.##..;....+#*@.",
"+....##.........##.....++..*###@*.*+@.@@"};
