/* XPM */
static char * 0_xpm[] = {
"40 40 37 1",
" 	c #C88050",
".	c #C8A040",
"+	c #E0A040",
"@	c #D8A080",
"#	c #A08068",
"$	c #A86040",
"%	c #B86828",
"&	c #F8A040",
"*	c #C86040",
"=	c #E0D078",
"-	c #A8A040",
";	c #B83878",
">	c #F888B8",
",	c #F870B0",
"'	c #981858",
")	c #98A060",
"!	c #D85090",
"~	c #F8A0C8",
"{	c #F8D0E0",
"]	c #880050",
"^	c #F8B8D8",
"/	c #000008",
"(	c #C00000",
"_	c #F80000",
":	c #806850",
"<	c #F8F8F8",
"[	c #703800",
"}	c #900000",
"|	c #F87000",
"1	c #A84800",
"2	c #D06000",
"3	c #606060",
"4	c #A0A0A0",
"5	c #F8A800",
"6	c #D8D8D8",
"7	c #503000",
"8	c #382000",
"     .   .+ .@ @@ @+. #$    @   #  +   +",
"    % % %+ + .@ @@+ & .      @@         ",
"  %% %  +  + @@ @ &@+@      @  $$   *  @",
" % %% %%% . .+ &=&@+@+.  %   @ $-$$     ",
"  % %%   %%     @&;>,>'        $$%   )  ",
" $% %@        -  ;!>~,'' $  @@ @$ $)  @#",
" -     . %   + +@;>~>';' -       -   # %",
"    @    % @ +++;;~{~'';  .  $      @ @ ",
" @@@  )    %@.+;];~^,'/' @   .   .+ .@ @",
"   .@@@+. .%+ +;~>!!>,,;    % % %+ + .@ ",
"   @@=&@@& & @;>~],~,],,; %% %  +  + @@ ",
"    %+ @&@&@@+;>;>~,^>;,'  %% %%% . .+ &",
"   + @. @+@.@@;;/;>!>;/;' % %%   %%     ",
" @  .  %.@+@+;;!//(;(//!;'% %@        - ",
"   + %%  @+@.;~>>/_>_/!!,'     . %   + +",
"  %  %:  .@  ;>!~!>~>!!,!'  @    % @ +++",
"%   @   #  ;;';!~<<<<<,!''''  )    %@.+ ",
"%    @@ [/[>^>,;>(((}}!'!!!;[/[+. .%+ ++",
"    @ ;'|//|;,>;!}}}}}>'>,;|//|''& & @+ ",
"     @;>,1/2''','>>>!!';'''2/1,>;@&@@+@@",
"#-   ;,,>[/[ );!,''''',!;- [/[>,,'@.@@ .",
"    @@;!,'$) <@;!!!;!!!; <  .',!'@+@+@& ",
"      <;'-~  # %'~>!>,'   <+~%''<@+@.  +",
". .  $<   ~<@ < /;,;,;/$< %<~%: <.@   . ",
"     . < .<~.@<@//111//$<  ~<  <#  +   +",
"    % %<%< +~<@ 3415143  <~  <@<        ",
"  %% %  <  + ~@ 63414<6  ~  @ <$$   *  @",
" % %% %%%<. <+~3<6636463~%<  < $-$$     ",
"  % %%   %<    34643<343    <  $$%   )  ",
" $% %@      < 34343+33343$< @@ @$ $)  @#",
" -     . %   +//// @ ////-       -   # %",
"    @    % @ +[5|1///15|[ .  $      @ @ ",
" @@@  )    %@7[[78///87[78   .   .+ .@ @",
"   .@@@+. .%+8888/////8888  % % %+ + .@ ",
"   @@=&@@& & @+ ////////  %% %  +  + @@ ",
"    %+ @&@&@@+@@ %%        %% %%% . .+ &",
"   + @. @+@.@@ .@         % %%   %%     ",
" @  .  %.@+@+@&     %%   @% %@        - ",
"   + %%  @+@.  +      %        . %   + +",
"  %  %:  .@   .   %  .      @    % @ +++"};
