/* XPM */
static char * 1_xpm[] = {
"40 40 40 1",
" 	c #C88050",
".	c #C8A040",
"+	c #E0A040",
"@	c #D8A080",
"#	c #A08068",
"$	c #A86040",
"%	c #B86828",
"&	c #F8A040",
"*	c #C86040",
"=	c #E0D078",
"-	c #A8A040",
";	c #B83878",
">	c #98A060",
",	c #F888B8",
"'	c #F8A0C8",
")	c #981858",
"!	c #F8D0E0",
"~	c #D85090",
"{	c #F870B0",
"]	c #880050",
"^	c #000008",
"/	c #F80000",
"(	c #F8F8F8",
"_	c #703800",
":	c #F0F0F0",
"<	c #D8D8D8",
"[	c #C0C0C0",
"}	c #F87000",
"|	c #A84800",
"1	c #C00000",
"2	c #580000",
"3	c #806850",
"4	c #900000",
"5	c #F8B8D8",
"6	c #D06000",
"7	c #606060",
"8	c #A0A0A0",
"9	c #F8A800",
"0	c #503000",
"a	c #382000",
"     .   .+ .@ @@ @+. #$    @   #  +   +",
"    % % %+ + .@ @@+ & .      @@         ",
"  %% %  +  + @@ @ &@+@      @  $$   *  @",
" % %% %%% . .+ &=&@+@+.  %   @ $-$$     ",
"  % %%   %%     @& @;;         $$%   >  ",
" $% %@        -  @&;,')  $  @@ @$ $>  @#",
" -     . %   + +@.;,',)) -       -   # %",
"    @    % @ ++++;)'!'~)) .  $      @ @ ",
" @@@  >    %@.+ ;',~~{{{)@   .   .+ .@ @",
"   .@@@+. .%+ ++;,],,,]{;   % % %+ + .@ ",
"   @@=&@@& & @+;~;;;;;;;{;%% %  +  + @@ ",
"    %+ @&@&@@+@;;^^/,/^^;) %% %%% . .+ &",
"   + @. @+@(;;];~,~,',~~~;]))(   %%     ",
" @  .  (.(+_,,)',:((((<[~{){~_ ( (    - ",
"   + %%((@^}|{),~1(111<2)~)~|}^.((   + +",
"  %  %3 (._^^(.;;1111442)) (^^_ (% @ +++",
"%   @  (#(_}(^ +;,11442{) @^(}_( ( %@.+ ",
"%    @@( (;56_;);~44422~)])_6~)(.(.%+ ++",
"    @  ($ ;({;5,~):422[)~{~;{()@@( & @+ ",
"     @ (-$(;),,{,):((<[),;,{))(@&(&@@+@@",
"#-     $$%(( ;)){,))))),{))) (( @+@.@@ .",
"    @@ @( (>  @;~{5,~,{{~;  . (%(@+@+@& ",
"         -(  ( %;~~~;~~~;  ( %(  @+@.  +",
". .  $     (@ @  )',~,{). %  (3  .@   . ",
"     .   .+ (@ @@^;{;{;^    (   #  +   +",
"    % % %+ + .@(@^^|||^^ (   @@         ",
"  %% %  +  + @@ @78|9|87    @  $$   *  @",
" % %% %%% . .+ &=<78|8(< %   @ $-$$     ",
"  % %%   %%     7(<<7<8<7      $$%   >  ",
" $% %@        - 78<87(787$  @@ @$ $>  @#",
" -     . %   + 78787 77787       -   # %",
"    @    % @ ++^^^^ @ ^^^^.  $      @ @ ",
" @@@  >    %@.+_9}|^^^|9}_   .   .+ .@ @",
"   .@@@+. .%+ 0__0a^^^a0_0a % % %+ + .@ ",
"   @@=&@@& & @aaaa^^^^^aaaa% %  +  + @@ ",
"    %+ @&@&@@+@@ ^^^^^^^^  %% %%% . .+ &",
"   + @. @+@.@@ .@         % %%   %%     ",
" @  .  %.@+@+@&     %%   @% %@        - ",
"   + %%  @+@.  +      %        . %   + +",
"  %  %3  .@   .   %  .      @    % @ +++"};
