/* XPM */
static char * 2_xpm[] = {
"40 40 38 1",
" 	c #C88050",
".	c #C8A040",
"+	c #E0A040",
"@	c #D8A080",
"#	c #A08068",
"$	c #A86040",
"%	c #B86828",
"&	c #E0F8F8",
"*	c #F8A040",
"=	c #C8E8F8",
"-	c #C86040",
";	c #E0D078",
">	c #A8D0F8",
",	c #A8A040",
"'	c #98A060",
")	c #F8F8F8",
"!	c #B83878",
"~	c #ABE3A7",
"{	c #D85090",
"]	c #F888B8",
"^	c #F870B0",
"/	c #F8A0C8",
"(	c #981858",
"_	c #F8D0E0",
":	c #F8B8D8",
"<	c #806850",
"[	c #000008",
"}	c #880050",
"|	c #D06000",
"1	c #703800",
"2	c #606060",
"3	c #A84800",
"4	c #D8D8D8",
"5	c #F8A800",
"6	c #A0A0A0",
"7	c #F87000",
"8	c #503000",
"9	c #382000",
"     .   .+ .@ @@ @+. #$    @   #  +   +",
"    % % %+ + .@ @&&&* .      @@         ",
"  %% %  +  + @@ = =@=@      @  $$   -  @",
" % %% %%% . .+ &;*@+=>.  %   @ $,$$     ",
"  % %%   %%    &@===>>    &=&& $$%   '  ",
" $% %@        ,  @=> >   ==&=&&@$ $'  @#",
" ,     . %   + +@. = @ @==&&=)&& ,   # %",
"    @    % @ ++++ =>@   &&=&)& &=   @ @ ",
" @@@  '    %@.+ ++ > !!!>=~~&. ==.+ .@ @",
"   .@@@+. .%+ +++ =>!{]^!~~=% ==>+ + .@ ",
"   @@;*@@* * @+  +=!]/^(!!>= %=>+  + @@ ",
"    %+ @*@*@@==> %!{/](~(^>>%>>%% . .+ *",
"   + @. @+@.>@ =>!!/_/((>=)>%%   %%     ",
" @  .  %.@+@+>* >^!/:/({(=> %@        , ",
"   + %%  @+@.  =!^!//]!{=>     . %   + +",
"  %  %<  .@) /.>]>!^]^![>! /@)   % @ +++",
"%   @   #  +)  !]>]{{^^>^(@@) '    %@.+ ",
"%    @@    }   !/]>]/]>^]( .@}@+. .%+ ++",
"    @  $$   )  !]!]/^:]!{! @);*@@* * @+ ",
"     @ $,$$/  !]!^!]{]!^!^( %/ @*@*@@+@@",
"#,     $$%}} '!]{((!!!(({^(+ }} @+@.@@ .",
"    @@ @$ $)  @!]{!(](!{{(  .) %.@+@+@* ",
"         ) )}#)(!_/]/]{](()+})%) @+@.  +",
". .  $    /}/)]^!/]!((/{(^{)/}/  .@   . ",
"     .   .//)!/]!!]{{{{(!]{()// #  +   +",
"    % % %+ )))[{({!!!!!{(![)))@         ",
"  %% %  + )+!)|[(!{{!{{!([|)( )$$   -  @",
" % %% %%% . !^]1;[!^!^![ 1^{(@ $,$$     ",
"  % %%   %%  !( 2[[333[[2 ((   $$%   '  ",
" $% %@        224)43536)422 @@ @$ $'  @#",
" ,     . %   +24)2623262)42      ,   # %",
"    @    % @ +2646222226462  $      @ @ ",
" @@@  '    %@.+[[[[+ .[[[[   .   .+ .@ @",
"   .@@@+. .%+ +1573[[[3571  % % %+ + .@ ",
"   @@;*@@* * @81189[[[98189% %  +  + @@ ",
"    %+ @*@*@@+9999[[[[[9999%% %%% . .+ *",
"   + @. @+@.@@ .@[[[[[[[[ % %%   %%     ",
" @  .  %.@+@+@*     %%   @% %@        , ",
"   + %%  @+@.  +      %        . %   + +",
"  %  %<  .@   .   %  .      @    % @ +++"};
