/* XPM */
static char * 3_xpm[] = {
"40 40 616 2",
"  	c #C88050",
". 	c #C8A040",
"+ 	c #CCB47F",
"@ 	c #E0C19B",
"# 	c #D0B2A0",
"$ 	c #DEF1EE",
"% 	c #E0F8F8",
"& 	c #E1F8F8",
"* 	c #E8F8F8",
"= 	c #E2F4F8",
"- 	c #D1EBF8",
"; 	c #BCDFF8",
"> 	c #D1EDF8",
", 	c #E1F9F8",
"' 	c #D2EFF8",
") 	c #BEDFF8",
"! 	c #BBDDF8",
"~ 	c #B7DBF8",
"{ 	c #D6EFF8",
"] 	c #E2F5F8",
"^ 	c #CCEBF8",
"/ 	c #C8CED5",
"( 	c #C89174",
"_ 	c #A08068",
": 	c #E0A040",
"< 	c #B86828",
"[ 	c #BF9178",
"} 	c #E5E8E0",
"| 	c #EAF8F8",
"1 	c #E2F8F8",
"2 	c #EBF8F8",
"3 	c #F2F8F8",
"4 	c #FAF8F8",
"5 	c #E5F1F8",
"6 	c #C0E3F8",
"7 	c #CDEBF8",
"8 	c #D7F2F8",
"9 	c #E7F7F8",
"0 	c #EAF9F8",
"a 	c #CFECF8",
"b 	c #BFDDF8",
"c 	c #E2EEF8",
"d 	c #E3F6F8",
"e 	c #C8E7F8",
"f 	c #C2C8DA",
"g 	c #C58B74",
"h 	c #CDA189",
"i 	c #E6E8DF",
"j 	c #F4F8F8",
"k 	c #F9F8F8",
"l 	c #EEF8F8",
"m 	c #D8F1F8",
"n 	c #EDF8F8",
"o 	c #ECF8F8",
"p 	c #E5F2F8",
"q 	c #B5DAF8",
"r 	c #C5E4F8",
"s 	c #CBEAF8",
"t 	c #F0F5F8",
"u 	c #F8F8F8",
"v 	c #DEF6F8",
"w 	c #C2E3F8",
"x 	c #B6D6F8",
"y 	c #D2E6F8",
"z 	c #B9DCF8",
"A 	c #A7CFF8",
"B 	c #A8B5D3",
"C 	c #A87269",
"D 	c #C86040",
"E 	c #D8A080",
"F 	c #CAB9AD",
"G 	c #D5F0F8",
"H 	c #E9F5F8",
"I 	c #D4ECF8",
"J 	c #CDEAF8",
"K 	c #CFEDF8",
"L 	c #A6CFF8",
"M 	c #A7D0F8",
"N 	c #A8C3D5",
"O 	c #A87268",
"P 	c #A86040",
"Q 	c #D3C0B2",
"R 	c #E4F8F8",
"S 	c #F0F8F8",
"T 	c #EFF8F8",
"U 	c #DAF3F8",
"V 	c #D3EFF8",
"W 	c #EAF7F8",
"X 	c #D3E7F8",
"Y 	c #C1E2F8",
"Z 	c #E6F4F8",
"` 	c #E0F5F8",
" .	c #CBE3F8",
"..	c #E4F5F8",
"+.	c #DFF7F8",
"@.	c #D0EDF8",
"#.	c #C6E7F8",
"$.	c #B0D6F8",
"%.	c #BFE1F8",
"&.	c #BEE1F8",
"*.	c #AED4F8",
"=.	c #B58378",
"-.	c #98A060",
";.	c #CA916F",
">.	c #D8D7D0",
",.	c #E7F8F8",
"'.	c #F5F8F8",
").	c #E1F7F8",
"!.	c #CAE9F8",
"~.	c #D2EEF8",
"{.	c #DCF4F8",
"].	c #D4EDF8",
"^.	c #DAF4F8",
"/.	c #F1F9F8",
"(.	c #CDE3F8",
"_.	c #CEECF8",
":.	c #C8E8F8",
"<.	c #D9F3F8",
"[.	c #D7F1F8",
"}.	c #B1A7B1",
"|.	c #C7845F",
"1.	c #A8A040",
"2.	c #C88253",
"3.	c #C88356",
"4.	c #D1C6A4",
"5.	c #DFF2F1",
"6.	c #DAEFF8",
"7.	c #DBF5F8",
"8.	c #E3F7F8",
"9.	c #DFF5F8",
"0.	c #EDF6F8",
"a.	c #D8F0F8",
"b.	c #B6D8F8",
"c.	c #C9E8F8",
"d.	c #CCEAF8",
"e.	c #DDF6F8",
"f.	c #DCF5F8",
"g.	c #C8DEEA",
"h.	c #ADAE7B",
"i.	c #C88052",
"j.	c #CEA58E",
"k.	c #DEF0EE",
"l.	c #E0F3F2",
"m.	c #F5F7F8",
"n.	c #D7EEF8",
"o.	c #F4F7F8",
"p.	c #F7F8F8",
"q.	c #D0ECF8",
"r.	c #EFF5F8",
"s.	c #E0F7F8",
"t.	c #E5F8F8",
"u.	c #F6F8F8",
"v.	c #F8F9F8",
"w.	c #D9E8F8",
"x.	c #CCE9F8",
"y.	c #DEF7F8",
"z.	c #B2CEED",
"A.	c #C58B71",
"B.	c #D0B4A2",
"C.	c #EFF7F8",
"D.	c #DDF5F8",
"E.	c #E9F8F8",
"F.	c #EBF7F8",
"G.	c #D3F0F8",
"H.	c #F1F6F8",
"I.	c #F0F7F8",
"J.	c #E6F8F8",
"K.	c #F4F6F8",
"L.	c #CDE2F8",
"M.	c #CEEBF8",
"N.	c #AFD3F5",
"O.	c #DBA66C",
"P.	c #D9B39D",
"Q.	c #E1F6F6",
"R.	c #DFF0F8",
"S.	c #CFEBF8",
"T.	c #F6F7F8",
"U.	c #F3F8F8",
"V.	c #E3F2F8",
"W.	c #EEF5F8",
"X.	c #F2F6F8",
"Y.	c #D4E5F8",
"Z.	c #C9E7F8",
"`.	c #C1E1F8",
" +	c #C3E4F8",
".+	c #B0D4F5",
"++	c #C58C74",
"@+	c #D9B39E",
"#+	c #E6F5F8",
"$+	c #D8F3F8",
"%+	c #EBF4F8",
"&+	c #B4D8F8",
"*+	c #ECF6F8",
"=+	c #D3EEF8",
"-+	c #CAE8F8",
";+	c #C4E4F8",
">+	c #C6E6F8",
",+	c #AED1F5",
"'+	c #C08F76",
")+	c #DDF1F8",
"!+	c #D5F1F8",
"~+	c #DCEEF8",
"{+	c #E9F4F8",
"]+	c #E4F7F8",
"^+	c #C2E4F8",
"/+	c #D6F2F8",
"(+	c #D8F2F8",
"_+	c #D4EFF8",
":+	c #D4F0F8",
"<+	c #D6F1F8",
"[+	c #B3D8F8",
"}+	c #ABD0F5",
"|+	c #C5A66C",
"1+	c #F8A040",
"2+	c #CB9271",
"3+	c #DDE1DB",
"4+	c #D0E3F8",
"5+	c #DBE9F9",
"6+	c #E4F1F8",
"7+	c #D7F3F8",
"8+	c #B4D9F8",
"9+	c #C2E3F9",
"0+	c #BDDFF9",
"a+	c #CBE9F8",
"b+	c #E1F1F8",
"c+	c #D9F4F8",
"d+	c #C4E5F8",
"e+	c #AFD4F7",
"f+	c #B67A63",
"g+	c #CEA791",
"h+	c #E7F4F8",
"i+	c #E1F5F8",
"j+	c #BEE0F8",
"k+	c #AAD1F8",
"l+	c #CEE2F5",
"m+	c #B0DBDA",
"n+	c #DCE8F8",
"o+	c #DEF4F8",
"p+	c #CCE9F9",
"q+	c #C7E5F8",
"r+	c #BCE5DB",
"s+	c #ACDBD5",
"t+	c #BBDDF7",
"u+	c #E1F0F8",
"v+	c #E3F0F8",
"w+	c #DFF1F8",
"x+	c #BDDFF8",
"y+	c #B9B6C6",
"z+	c #C68664",
"A+	c #BC7F5C",
"B+	c #C9B2A5",
"C+	c #DDD8D2",
"D+	c #B8DBF8",
"E+	c #C3BECC",
"F+	c #C9E2EE",
"G+	c #AAD3F3",
"H+	c #AAE1B0",
"I+	c #B0DCD5",
"J+	c #C6DEF9",
"K+	c #BEDCF9",
"L+	c #C2DDF8",
"M+	c #BBDEFA",
"N+	c #B1DFDD",
"O+	c #D4F2ED",
"P+	c #B7E8BA",
"Q+	c #ABE3A7",
"R+	c #AADCCC",
"S+	c #B9DCF6",
"T+	c #DDEFF8",
"U+	c #D7EDF8",
"V+	c #BAB4C3",
"W+	c #B7704A",
"X+	c #806850",
"Y+	c #CB9576",
"Z+	c #D0B19E",
"`+	c #C5B699",
" @	c #CAB0B0",
".@	c #C78868",
"+@	c #DCEAE8",
"@@	c #AED5F3",
"#@	c #ABE2AB",
"$@	c #ABE2AC",
"%@	c #A9DDC3",
"&@	c #A8D8D9",
"*@	c #BCDFFA",
"=@	c #C2BCD4",
"-@	c #B28291",
";@	c #B9CBE0",
">@	c #AEE3BC",
",@	c #ABE3AA",
"'@	c #AFD9E1",
")@	c #DBE9F7",
"!@	c #B2D8F8",
"~@	c #B2D7F8",
"{@	c #C0BFCB",
"]@	c #C2A19C",
"^@	c #C68768",
"/@	c #E0A144",
"(@	c #BAD1E8",
"_@	c #D0ECF7",
":@	c #ACD8E3",
"<@	c #ABE3A9",
"[@	c #ABE3A5",
"}@	c #A9DCC9",
"|@	c #C4E5FB",
"1@	c #D9B6C6",
"2@	c #E3669E",
"3@	c #EA87BD",
"4@	c #C18194",
"5@	c #ACD7A8",
"6@	c #B0D6F3",
"7@	c #DCF1F8",
"8@	c #A9D0F8",
"9@	c #B5C6E2",
"0@	c #C2958A",
"a@	c #C1968E",
"b@	c #99A579",
"c@	c #C88153",
"d@	c #B1C6E5",
"e@	c #ADD4F7",
"f@	c #A9D6E3",
"g@	c #ABE2A5",
"h@	c #A9D9C8",
"i@	c #C4E3FA",
"j@	c #ECCADB",
"k@	c #F67FB5",
"l@	c #C45484",
"m@	c #B43A75",
"n@	c #BA738A",
"o@	c #D2E8F2",
"p@	c #B6D0EB",
"q@	c #C49080",
"r@	c #C5A669",
"s@	c #C5736A",
"t@	c #B6CDE8",
"u@	c #D2E9F1",
"v@	c #AAD3EB",
"w@	c #AFC299",
"x@	c #B390B5",
"y@	c #D3C2E7",
"z@	c #FA9DC5",
"A@	c #C8588A",
"B@	c #A6B68F",
"C@	c #A1767E",
"D@	c #E67FB1",
"E@	c #B4CFF3",
"F@	c #AFC3E2",
"G@	c #E0D078",
"H@	c #C78664",
"I@	c #C39F99",
"J@	c #B2C6E8",
"K@	c #B55F8B",
"L@	c #D16C9C",
"M@	c #F7B8D5",
"N@	c #FAB7D4",
"O@	c #C2648D",
"P@	c #9F3560",
"Q@	c #A6B0D4",
"R@	c #D3E8F3",
"S@	c #B3C6E4",
"T@	c #C68869",
"U@	c #99A371",
"V@	c #B7C4DE",
"W@	c #CFDEEA",
"X@	c #ACB5DD",
"Y@	c #D26998",
"Z@	c #F9ABD0",
"`@	c #F9A9CE",
" #	c #C5638E",
".#	c #CA769A",
"+#	c #AB7398",
"@#	c #AFB9D5",
"##	c #A1887B",
"$#	c #C87F51",
"%#	c #CD8C84",
"&#	c #AF8AB3",
"*#	c #A59DC4",
"=#	c #D36295",
"-#	c #F999C4",
";#	c #F98FBD",
">#	c #D2528E",
",#	c #CBCFDE",
"'#	c #B1D7F8",
")#	c #CC9995",
"!#	c #A27C69",
"~#	c #BB5B8B",
"{#	c #C7ADD5",
"]#	c #B86F97",
"^#	c #CA80B1",
"/#	c #ED6BA6",
"(#	c #F471AD",
"_#	c #DC92B2",
":#	c #AFC6E9",
"<#	c #C3B9E5",
"[#	c #B35584",
"}#	c #C67C53",
"|#	c #C77C54",
"1#	c #C35384",
"2#	c #F992BE",
"3#	c #E49BC4",
"4#	c #B790B9",
"5#	c #E873A6",
"6#	c #F177AE",
"7#	c #EADAE5",
"8#	c #D6C9E6",
"9#	c #F184BA",
"0#	c #A93668",
"a#	c #C59A42",
"b#	c #D69C7F",
"c#	c #C14F82",
"d#	c #F28CB9",
"e#	c #D46395",
"f#	c #E07AA5",
"g#	c #FA92C0",
"h#	c #F2BDD5",
"i#	c #DF80A9",
"j#	c #E4689F",
"k#	c #B33C72",
"l#	c #C77D52",
"m#	c #C2736C",
"n#	c #E070A0",
"o#	c #D65F95",
"p#	c #DF5F9C",
"q#	c #E277A6",
"r#	c #F07DB0",
"s#	c #F085B5",
"t#	c #E279A8",
"u#	c #DF5E9B",
"v#	c #CB4887",
"w#	c #DE5D99",
"x#	c #B3585E",
"y#	c #C77F50",
"z#	c #C77E52",
"A#	c #C0507F",
"B#	c #F180B1",
"C#	c #CC4987",
"D#	c #B33973",
"E#	c #B23B73",
"F#	c #C84D87",
"G#	c #B33972",
"H#	c #CC4988",
"I#	c #F06AA9",
"J#	c #A63662",
"K#	c #C67E50",
"L#	c #C89F41",
"M#	c #D88F55",
"N#	c #CC598B",
"O#	c #EA76A9",
"P#	c #C74884",
"Q#	c #AB2F6C",
"R#	c #C95C8C",
"S#	c #CA5C8C",
"T#	c #AB2C6B",
"U#	c #C74583",
"V#	c #D54E8E",
"W#	c #B74074",
"X#	c #BF7154",
"Y#	c #B86829",
"Z#	c #C77D54",
"`#	c #BD5074",
" $	c #A82F69",
".$	c #CC6F98",
"+$	c #F4B9D1",
"@$	c #EF8DB8",
"#$	c #F08BB7",
"$$	c #F08CB7",
"%$	c #DD649A",
"&$	c #EB76A9",
"*$	c #B64477",
"=$	c #9F245F",
"-$	c #A6415B",
";$	c #C57C51",
">$	c #BE5274",
",$	c #EF80B0",
"'$	c #EC6BA7",
")$	c #C65A8C",
"!$	c #F59AC2",
"~$	c #E777A8",
"{$	c #B53D76",
"]$	c #A63168",
"^$	c #DC7EA8",
"/$	c #DF6CA0",
"($	c #AB2E6A",
"_$	c #E867A3",
":$	c #D24F8C",
"<$	c #9F3456",
"[$	c #B64D6F",
"}$	c #E38DB4",
"|$	c #EC7BAD",
"1$	c #B73A78",
"2$	c #CF5A90",
"3$	c #E671A5",
"4$	c #D14A8B",
"5$	c #D14B8B",
"6$	c #D4508E",
"7$	c #B53873",
"8$	c #B13472",
"9$	c #E776A8",
"0$	c #C84D86",
"a$	c #984951",
"b$	c #D3947E",
"c$	c #A2585B",
"d$	c #7A3630",
"e$	c #BA427A",
"f$	c #A62966",
"g$	c #CD4988",
"h$	c #C03F7E",
"i$	c #BC3B7B",
"j$	c #C03E7E",
"k$	c #CD4888",
"l$	c #A62965",
"m$	c #A13067",
"n$	c #753128",
"o$	c #A15055",
"p$	c #C09345",
"q$	c #B9466E",
"r$	c #F07AAD",
"s$	c #DA6E72",
"t$	c #632F23",
"u$	c #A64758",
"v$	c #AC3771",
"w$	c #D95292",
"x$	c #D14E8D",
"y$	c #AB5765",
"z$	c #622F29",
"A$	c #D9636C",
"B$	c #E5619D",
"C$	c #A54158",
"D$	c #B8555A",
"E$	c #DD6096",
"F$	c #D86B99",
"G$	c #B07539",
"H$	c #A87C3E",
"I$	c #40001D",
"J$	c #B24271",
"K$	c #CB547B",
"L$	c #B34472",
"M$	c #420020",
"N$	c #A87B3E",
"O$	c #A26140",
"P$	c #D45890",
"Q$	c #BF437A",
"R$	c #B46054",
"S$	c #BE6762",
"T$	c #8B515E",
"U$	c #AE875F",
"V$	c #A9A9A9",
"W$	c #B0B1B1",
"X$	c #9E857E",
"Y$	c #BF6700",
"Z$	c #BF6800",
"`$	c #856258",
" %	c #A7A8A8",
".%	c #AAAAAA",
"+%	c #9F7764",
"@%	c #864C58",
"#%	c #B26252",
"$%	c #D69F7F",
"%%	c #7B7167",
"&%	c #B8B8B8",
"*%	c #E3E3E3",
"=%	c #BABABA",
"-%	c #AAA2A0",
";%	c #AD692D",
">%	c #AE6A2F",
",%	c #968C8A",
"'%	c #B2B2B2",
")%	c #B9B9B9",
"!%	c #766D69",
"~%	c #C68051",
"{%	c #D59E7F",
"]%	c #79716D",
"^%	c #BBBBBB",
"/%	c #D7D7D7",
"(%	c #888888",
"_%	c #6F7171",
":%	c #6D5B58",
"<%	c #707272",
"[%	c #D6D6D6",
"}%	c #C57F51",
"|%	c #DFA040",
"1%	c #BF9177",
"2%	c #635B57",
"3%	c #6D6D6D",
"4%	c #4D4C4C",
"5%	c #77523F",
"6%	c #B67A55",
"7%	c #6E4833",
"8%	c #6D6C6D",
"9%	c #5E5958",
"0%	c #B27754",
"a%	c #D7A080",
"b%	c #C17B4C",
"c%	c #854E0C",
"d%	c #E08E00",
"e%	c #D15C00",
"f%	c #843C11",
"g%	c #5B3822",
"h%	c #833A11",
"i%	c #D18700",
"j%	c #E07100",
"k%	c #85400C",
"l%	c #C67E4F",
"m%	c #7D4D26",
"n%	c #7B480B",
"o%	c #8B5110",
"p%	c #763F10",
"q%	c #512D12",
"r%	c #30170C",
"s%	c #351F15",
"t%	c #512C12",
"u%	c #764E0B",
"v%	c #8A4A10",
"w%	c #693C10",
"x%	c #724725",
"y%	c #C57E4F",
"          .       + @ # $ % % & * = - ; > , ' ) ! ~ { ] ^ / (   _     :       : ",
"        <   <   [ } | | & % 1 2 3 4 5 6 7 8 9 0 % a b c d e f g                 ",
"    < <   <   h i j k k l & m n o 3 p q r s t u n v w x y z A B C       D     E ",
"  <   < <   < F n k l | | G 8 1 o H I q J K t u 2 v w A L A M M N O P           ",
"    <   < <   Q R * l S T U V % 1 W X Y Z `  ...+.@.#.~ $.%.&.%.*.=.      -.    ",
"  P <   < E   ;.>.% R ,.'.).!.~.% {.].^./.(.&.^ _.:.^ <.[.' :.:.}.|.P -.    E _ ",
"  1.      2.3.4.5.n 6.7.8.@.9.0.& +.+.& a.b.V s c.d.e.,.n e.f.@.g.h.i.    _   < ",
"        E j.k.l.% l m.n.7.a o.p.'.'.'.| e.^.e.q.r.s.t.u.v.w.x.y._.z.A.  E   E   ",
"  E E E 3.B.& o n s.C.m.].D.p.j E.S F.W G.!.7 H.p.I.J.u u K.L.M.7 N.O.  . E   E ",
"      . P.Q.2 u u R.^.0.).S.T.'.U.2 V.8 y.!.8 o.W.~.R j X.Y.Z.`. +.+++:   . E   ",
"      E @+J.u u k #+y.V $+~.%+E.3 W e.U > &+ +*+=+^.% +.J -+;+Z.>+,+++:   E E   ",
"        '+R U.k '.)+!++.V q.~+{+]+!+q.r a ~ ^+/+(+_+,.7.:+<+^ [+$.}+|+  . :   1+",
"      : 2+3+R l n t.8 <+J 4+5+6+r.7+=+J !+8+9+0+a+W b+c+=+e @.; d+e+f+          ",
"  E     . g+% t.h+i+<.j+k+l+m+n+I.o+..!+p+q+r+s+t+u+v+w+!.~ ~ d+x+y+z+      1.  ",
"      :   A+B+C+i+Z.D+E+F+G+H+I+J+K+L+M+N+O+P+Q+R+S+T+U+:. +; D+V+W+      :   : ",
"    <     < X+Y+Z+`+ @.@+@@@#@$@%@&@*@=@-@;@>@,@'@)@!@~@!@!@{@]@^@<   E   : : : ",
"<       E       _     /@(@_@:@<@[@}@|@1@2@3@4@5@6@7@8@9@0@a@b@        < E . :   ",
"<         E E         c@d@[.e@f@g@h@i@j@k@l@m@n@o@p@q@r@E E E : .   . < :   : : ",
"        E     P P       s@t@u@v@w@x@y@z@A@B@C@D@E@F@c@E E G@1+E E 1+  1+  E :   ",
"          E   P 1.P P     H@I@J@K@L@M@N@O@P@Q@R@S@T@    < :   E 1+E 1+E E : E E ",
"_ 1.          P P <       U@V@W@X@Y@Z@`@ #.#+#@###1.  :   E .   E : E . E E   . ",
"        E E   E P   P -.  $#%#&#*#=#-#;#>#,#'#)#$#      .     < . E : E : E 1+  ",
"                  1.      !#~#{#]#^#/#(#_#:#<#[#}#    :   < <     E : E .     : ",
".   .     P             E |#1#2#3#4#5#6#7#8#9#0#a#  <     < X+    . E       .   ",
"          .       . :   . b#c#d#e#f#g#-#h#i#j#k#l#      E       _     :       : ",
"        <   <   < :   : $#m#n#o#p#q#r#s#t#u#v#w#x#y#      E E                   ",
"    < <   <     :     : z#A#B#C#D#E#F#F#E#G#H#I#J#K#    E     P P       D     E ",
"  <   < <   < < <   .   L#M#N#O#P#Q#R#S#T#U#V#W#X#Y#      E   P 1.P P           ",
"    <   < <       < <   Z#`# $.$+$@$#$$$%$&$*$=$-$;$          P P <       -.    ",
"  P <   < E             >$,$'$)$!$~${$]$^$/$($_$:$<$    E E   E P   P -.    E _ ",
"  1.          .   <     [$}$|$1$2$3$4$5$6$7$8$9$0$a$              1.      _   < ",
"        E         <   b$c$d$e$f$g$h$i$i$j$k$l$m$n$o$p$    P             E   E   ",
"  E E E     -.        q$r$s$t$u$v$w$x$x$w$v$y$z$A$B$C$    .       . :   . E   E ",
"      . E E E : .   . D$E$F$G$H$I$J$K$K$L$M$N$O$P$Q$R$  <   <   < :   :   . E   ",
"      E E G@1+E E 1+  1+S$T$U$V$W$X$Y$Z$`$ %.%+%@%#%< <   <     :     :   E E   ",
"        < :   E 1+E 1+E $%%%&%*%=%-%;%>%,%'%*%)%!%~%  < <   < < <   .   . :   1+",
"      :   E .   E : E . {%]%^%/%(%_%:%:%<%(%[%^%!%}%<   < <       < <           ",
"  E     .     < . E : E |%1%2%3%4%5%6%6%7%4%8%9%0%a%<   < E                 1.  ",
"      :   < <     E : E . b%c%d%e%f%g%g%h%i%j%k%b%            .   <       :   : ",
"    <     < X+    . E   l%m%n%o%p%q%r%s%t%u%v%w%x%y%    E         <   E   : : : "};
