/* XPM */
static char * 4_xpm[] = {
"40 40 559 2",
"  	c #C88050",
". 	c #C8A040",
"+ 	c #E0A040",
"@ 	c #C9A551",
"# 	c #D0D6DA",
"$ 	c #CBE5F2",
"% 	c #CDE5F3",
"& 	c #F1F5F8",
"* 	c #F5F7F8",
"= 	c #F6F7F8",
"- 	c #DEECF3",
"; 	c #CEE6F1",
"> 	c #C9DFEC",
", 	c #A28672",
"' 	c #A86040",
") 	c #CA865B",
"! 	c #BDB9C7",
"~ 	c #B0D1F2",
"{ 	c #AFCDEE",
"] 	c #D2A899",
"^ 	c #A08068",
"/ 	c #B86828",
"( 	c #E0A85D",
"_ 	c #D7D6CE",
": 	c #E4F8F8",
"< 	c #E5F8F8",
"[ 	c #D4ECF8",
"} 	c #D1EBF8",
"| 	c #F1F6F8",
"1 	c #F3F8F8",
"2 	c #F6F8F8",
"3 	c #F0F5F8",
"4 	c #D2EAF4",
"5 	c #C8B58D",
"6 	c #C99E8A",
"7 	c #D3CAC1",
"8 	c #D8F2F8",
"9 	c #D5F0F8",
"0 	c #CEEBF8",
"a 	c #B4D1EF",
"b 	c #D1AA9E",
"c 	c #D8A080",
"d 	c #E0C7A6",
"e 	c #EEF8F8",
"f 	c #F7F8F8",
"g 	c #C7E7F8",
"h 	c #C5E6F8",
"i 	c #DBF5F8",
"j 	c #EBF9F8",
"k 	c #D1ECF8",
"l 	c #DDF6F8",
"m 	c #D0EEF8",
"n 	c #CCEBF8",
"o 	c #D5F1F8",
"p 	c #C0E2F8",
"q 	c #A9D1F8",
"r 	c #C9E7F8",
"s 	c #C6E6F8",
"t 	c #B0C3E2",
"u 	c #C86040",
"v 	c #C98860",
"w 	c #D4D2BA",
"x 	c #D4D9D6",
"y 	c #DBF0F8",
"z 	c #EAF6F8",
"A 	c #ECF8F8",
"B 	c #F4F7F8",
"C 	c #C4E4F8",
"D 	c #B7DAF8",
"E 	c #D8F3F8",
"F 	c #DEF0F8",
"G 	c #E0F7F8",
"H 	c #D3EFF8",
"I 	c #CFEAF8",
"J 	c #E8F4F8",
"K 	c #E0F5F8",
"L 	c #C1E2F8",
"M 	c #AAD2F8",
"N 	c #C3E4F8",
"O 	c #AECCEF",
"P 	c #BE9EA0",
"Q 	c #A8A040",
"R 	c #C9855B",
"S 	c #D6D5D0",
"T 	c #D7F2F8",
"U 	c #D0EDF8",
"V 	c #D9EFF8",
"W 	c #ECF6F8",
"X 	c #E7F7F8",
"Y 	c #BBDDF8",
"Z 	c #E9F9F8",
"` 	c #ECF4F8",
" .	c #E3F8F8",
"..	c #D9F3F8",
"+.	c #D8F1F8",
"@.	c #E7F2F8",
"#.	c #F5F9F8",
"$.	c #C2E3F8",
"%.	c #B5D9F8",
"&.	c #BDE0F8",
"*.	c #BAD5EE",
"=.	c #A78E9B",
"-.	c #98A060",
";.	c #C98A64",
">.	c #E2F4F3",
",.	c #F2F8F8",
"'.	c #DEF7F8",
").	c #D4F0F8",
"!.	c #D4EDF8",
"~.	c #CFECF8",
"{.	c #DAF4F8",
"].	c #E0F3F8",
"^.	c #F8F8F8",
"/.	c #EAF8F8",
"(.	c #DFF6F8",
"_.	c #C3E0F8",
":.	c #F2F7F8",
"<.	c #F3F6F8",
"[.	c #E4F1F8",
"}.	c #EAF4F8",
"|.	c #DFF5F8",
"1.	c #D7F1F8",
"2.	c #C6E7F8",
"3.	c #BAD7F1",
"4.	c #A78B95",
"5.	c #C9A658",
"6.	c #DDE6E2",
"7.	c #E2F8F8",
"8.	c #DDF5F8",
"9.	c #CFEDF8",
"0.	c #B6DAF8",
"a.	c #DBF4F8",
"b.	c #E1F8F8",
"c.	c #E1F7F8",
"d.	c #EFF8F8",
"e.	c #F5F8F8",
"f.	c #EAF2F8",
"g.	c #DAEEF8",
"h.	c #E7F8F8",
"i.	c #DFF7F8",
"j.	c #D6F2F8",
"k.	c #BADEF8",
"l.	c #AACDF2",
"m.	c #A8AD8C",
"n.	c #C88153",
"o.	c #CA8F6C",
"p.	c #DEE3DE",
"q.	c #DDF3F8",
"r.	c #CFEBF8",
"s.	c #BCDEF8",
"t.	c #F4F8F8",
"u.	c #DEF6F8",
"v.	c #E4F7F8",
"w.	c #D6F1F8",
"x.	c #B3D8F8",
"y.	c #A9CEF4",
"z.	c #C58A70",
"A.	c #C6DACC",
"B.	c #EEF4F8",
"C.	c #F9F8F8",
"D.	c #E8F5F8",
"E.	c #DDF7F8",
"F.	c #E1F6F8",
"G.	c #E5F7F8",
"H.	c #E6F7F8",
"I.	c #E1F0F8",
"J.	c #F1F8F8",
"K.	c #F4F5F8",
"L.	c #C8E1F8",
"M.	c #A9CFF6",
"N.	c #DBA668",
"O.	c #DDDAD2",
"P.	c #DFEFF8",
"Q.	c #ECF3F8",
"R.	c #E0F8F8",
"S.	c #EDF8F8",
"T.	c #F0F8F8",
"U.	c #DCF0F8",
"V.	c #E9F8F8",
"W.	c #E1F5F8",
"X.	c #D6E7F8",
"Y.	c #C5E4F8",
"Z.	c #C9E8F8",
"`.	c #B4D9F8",
" +	c #C58B71",
".+	c #E0D078",
"++	c #EADBC9",
"@+	c #E9F3F8",
"#+	c #E2F0F8",
"$+	c #EDF4F8",
"%+	c #DFF2F8",
"&+	c #EBF6F8",
"*+	c #DAEFF8",
"=+	c #F2F5F8",
"-+	c #DCF5F8",
";+	c #E9F7F8",
">+	c #CEE3F8",
",+	c #CBE9F8",
"'+	c #CC987B",
")+	c #DEEAE7",
"!+	c #E6F8F8",
"~+	c #DEEFF8",
"{+	c #DEF5F8",
"]+	c #E3F1F8",
"^+	c #D9F1F8",
"/+	c #E3F7F8",
"(+	c #D1EEF8",
"_+	c #D2EEF8",
":+	c #CCEAF8",
"<+	c #ABD2F8",
"[+	c #C5A668",
"}+	c #F8A040",
"|+	c #D9DDD8",
"1+	c #E2F7F8",
"2+	c #ECF7F8",
"3+	c #E1F1F8",
"4+	c #CDEBF8",
"5+	c #CAE9F8",
"6+	c #EBF7F8",
"7+	c #BCDFF8",
"8+	c #B7DBF8",
"9+	c #B3D7F6",
"0+	c #B39194",
"a+	c #B86A32",
"b+	c #BA7244",
"c+	c #DAE7DE",
"d+	c #E8F8F8",
"e+	c #EAF7F8",
"f+	c #EAF3F8",
"g+	c #D3EDF8",
"h+	c #D9EDF8",
"i+	c #C1E1F6",
"j+	c #B7D0EB",
"k+	c #C8E0ED",
"l+	c #C7ABA3",
"m+	c #C88052",
"n+	c #C9875D",
"o+	c #DCE2DF",
"p+	c #CED9DD",
"q+	c #D4E5EB",
"r+	c #BADDF8",
"s+	c #D9EAF8",
"t+	c #BEDAF8",
"u+	c #B0D6F8",
"v+	c #BEE0F8",
"w+	c #B5CCE8",
"x+	c #C4907E",
"y+	c #806850",
"z+	c #D1B9AA",
"A+	c #EDF7F8",
"B+	c #DAEBF9",
"C+	c #C1E2F9",
"D+	c #D7E9F9",
"E+	c #C1E3F9",
"F+	c #BFDFF9",
"G+	c #BCD9F8",
"H+	c #B3D5F8",
"I+	c #B9DCF8",
"J+	c #B3BBD4",
"K+	c #E0B37B",
"L+	c #DAE2DE",
"M+	c #EBF8F8",
"N+	c #CDEAF8",
"O+	c #C7E6F9",
"P+	c #C3B0D5",
"Q+	c #D5ABD7",
"R+	c #D3A3D3",
"S+	c #AEACC6",
"T+	c #A7DCD1",
"U+	c #D4EDE8",
"V+	c #C0DDF8",
"W+	c #A8D0F8",
"X+	c #B5DAF8",
"Y+	c #ABCAEE",
"Z+	c #9DB0A1",
"`+	c #D5CBC1",
" @	c #DBEFF8",
".@	c #ACD3F8",
"+@	c #B3D9F9",
"@@	c #E5A4C9",
"#@	c #F677B0",
"$@	c #C03D7C",
"%@	c #B75478",
"&@	c #AEB0B3",
"*@	c #CBECF0",
"=@	c #BBB6AE",
"-@	c #CAB0B1",
";@	c #CEADA8",
">@	c #CB7862",
",@	c #BCC6DA",
"'@	c #DCF2F8",
")@	c #B4D8F8",
"!@	c #B1B8DD",
"~@	c #AEA1CB",
"{@	c #C7E7FA",
"]@	c #F1ACCB",
"^@	c #B9577D",
"/@	c #A6BD93",
"(@	c #B84077",
"_@	c #E5B2CE",
":@	c #C3E5F9",
"<@	c #BEAAB0",
"[@	c #D7A185",
"}@	c #C78561",
"|@	c #B5C5DE",
"1@	c #D7ECF0",
"2@	c #AEC2E9",
"3@	c #BC4883",
"4@	c #B396C0",
"5@	c #DFD2EB",
"6@	c #F8ACCD",
"7@	c #A8406E",
"8@	c #A17074",
"9@	c #A9C19F",
"0@	c #AB99BB",
"a@	c #ABD1F7",
"b@	c #C09A95",
"c@	c #C78258",
"d@	c #C29D96",
"e@	c #C0CCED",
"f@	c #DC74AB",
"g@	c #D777A3",
"h@	c #F8AFD2",
"i@	c #F8A2C9",
"j@	c #B04274",
"k@	c #CF669D",
"l@	c #B8CDEA",
"m@	c #C5E0F1",
"n@	c #A7B2A4",
"o@	c #D7A083",
"p@	c #B3B3D5",
"q@	c #DED9E9",
"r@	c #A9B1DA",
"s@	c #DA699B",
"t@	c #F998C4",
"u@	c #F886B8",
"v@	c #C24E85",
"w@	c #D59CB7",
"x@	c #B092BC",
"y@	c #B99FB2",
"z@	c #C87F51",
"A@	c #BB4A7C",
"B@	c #D5AFDA",
"C@	c #C8B2DA",
"D@	c #CD81B3",
"E@	c #E968A2",
"F@	c #F46FAD",
"G@	c #DD669F",
"H@	c #C9DEF4",
"I@	c #C997C4",
"J@	c #B65459",
"K@	c #D79E80",
"L@	c #BD5482",
"M@	c #E3ADD5",
"N@	c #E3AAD4",
"O@	c #C9B0DA",
"P@	c #ED81B0",
"Q@	c #F582B5",
"R@	c #EBCBDD",
"S@	c #E49BCC",
"T@	c #E46EA2",
"U@	c #AB6A4B",
"V@	c #C25281",
"W@	c #EF83B2",
"X@	c #D370A1",
"Y@	c #F19DC8",
"Z@	c #F889BB",
"`@	c #F8A4CB",
" #	c #F1A8C7",
".#	c #CF538D",
"+#	c #D55791",
"@#	c #BA5B65",
"##	c #C3657C",
"$#	c #EB7AAB",
"%#	c #CD518C",
"&#	c #E05E9B",
"*#	c #DA6C9D",
"=#	c #E56BA2",
"-#	c #EE80B1",
";#	c #C9548B",
">#	c #E662A0",
",#	c #CE4D8B",
"'#	c #D65891",
")#	c #B56650",
"!#	c #C4687C",
"~#	c #EB7AAA",
"{#	c #D45590",
"]#	c #A42663",
"^#	c #AA2D6B",
"/#	c #C04680",
"(#	c #BA3F7B",
"_#	c #A22563",
":#	c #AF326E",
"<#	c #DE5797",
"[#	c #D2578E",
"}#	c #B66850",
"|#	c #C4735A",
"1#	c #BA4773",
"2#	c #E77AA9",
"3#	c #DB7BA4",
"4#	c #C15787",
"5#	c #E47DAA",
"6#	c #CB6390",
"7#	c #C24280",
"8#	c #DD5F98",
"9#	c #BD3D7A",
"0#	c #A64953",
"a#	c #B5632E",
"b#	c #C3715D",
"c#	c #D2638F",
"d#	c #C74C86",
"e#	c #C56490",
"f#	c #FAB6D3",
"g#	c #EE86B4",
"h#	c #DA79A3",
"i#	c #D7719D",
"j#	c #E679AA",
"k#	c #E36FA2",
"l#	c #A52B65",
"m#	c #C1457F",
"n#	c #B55363",
"o#	c #C37950",
"p#	c #BD556E",
"q#	c #F08CB8",
"r#	c #F57EB4",
"s#	c #C04982",
"t#	c #E37BA9",
"u#	c #E670A4",
"v#	c #C23D7D",
"w#	c #BF3D7B",
"x#	c #E174A5",
"y#	c #B63974",
"z#	c #C54F86",
"A#	c #F072AB",
"B#	c #B83674",
"C#	c #BB6E51",
"D#	c #AB683F",
"E#	c #8D546B",
"F#	c #D86096",
"G#	c #AD2F6C",
"H#	c #CF4E8B",
"I#	c #C74E87",
"J#	c #C2407F",
"K#	c #C24080",
"L#	c #C23E7F",
"M#	c #C3417F",
"N#	c #AF3871",
"O#	c #B14A7A",
"P#	c #782C3C",
"Q#	c #B77147",
"R#	c #C06663",
"S#	c #DD729D",
"T#	c #C96254",
"U#	c #71283C",
"V#	c #A02C5E",
"W#	c #C34180",
"X#	c #D44E8E",
"Y#	c #CE4A89",
"Z#	c #D14C8B",
"`#	c #B83977",
" $	c #8A1E50",
".$	c #8B3B22",
"+$	c #DC6480",
"@$	c #B95174",
"#$	c #C27851",
"$$	c #C97C7B",
"%$	c #E3639D",
"&$	c #ED7BAA",
"*$	c #8F503E",
"=$	c #C0873F",
"-$	c #6D1C46",
";$	c #CE5188",
">$	c #E3619B",
",$	c #B63E78",
"'$	c #643D3D",
")$	c #BA876C",
"!$	c #B5556F",
"~$	c #E25D9A",
"{$	c #AF3A6A",
"]$	c #C16269",
"^$	c #9C4260",
"/$	c #C28D50",
"($	c #898684",
"_$	c #78797A",
":$	c #8D5D51",
"<$	c #B85D00",
"[$	c #AE510D",
"}$	c #63514F",
"|$	c #7E7E7F",
"1$	c #96837B",
"2$	c #A86354",
"3$	c #9B3959",
"4$	c #BF7252",
"5$	c #85715D",
"6$	c #9F9F9F",
"7$	c #E1E1E1",
"8$	c #D0D1D1",
"9$	c #B09E9B",
"0$	c #C97C0E",
"a$	c #AB6633",
"b$	c #A39F9E",
"c$	c #D5D5D5",
"d$	c #838484",
"e$	c #A47355",
"f$	c #827169",
"g$	c #BFBFBF",
"h$	c #DBDBDB",
"i$	c #828282",
"j$	c #727475",
"k$	c #795750",
"l$	c #695E5C",
"m$	c #818181",
"n$	c #989898",
"o$	c #A0A0A0",
"p$	c #A37054",
"q$	c #B27855",
"r$	c #6A6761",
"s$	c #7A7C7D",
"t$	c #515556",
"u$	c #805B46",
"v$	c #B07857",
"w$	c #AF7756",
"x$	c #51443E",
"y$	c #626466",
"z$	c #787A7B",
"A$	c #85685B",
"B$	c #BE7C52",
"C$	c #F59E3F",
"D$	c #804A13",
"E$	c #DD8D00",
"F$	c #CC5900",
"G$	c #7E3C16",
"H$	c #613C24",
"I$	c #592F11",
"J$	c #964602",
"K$	c #DD8E00",
"L$	c #C75800",
"M$	c #945A32",
"N$	c #7E4E28",
"O$	c #6F3A01",
"P$	c #7F4800",
"Q$	c #653300",
"R$	c #341804",
"S$	c #000008",
"T$	c #020008",
"U$	c #492501",
"V$	c #704400",
"W$	c #783B00",
"X$	c #4D2E05",
"Y$	c #A3673E",
"Z$	c #7F6223",
"`$	c #663F1F",
" %	c #603A1B",
".%	c #2A1703",
"+%	c #090307",
"@%	c #331C02",
"#%	c #45290C",
"$%	c #633D1D",
"%%	c #A66A40",
"          .       . +   @ # $ % & * = - ; > , ' ) ! ~ { ]       ^     +       + ",
"        /   /   / +   ( _ : < [ } | 1 2 3 4 5 6 7 8 9 0 a b c                   ",
"    / /   /     +     d < e f * g h i j k l m n o p q r s t   ' '       u     c ",
"  /   / /   / / / v w x y z A B C D i E F G H I J K L M N O P ' Q ' '           ",
"    /   / /     R S A T U V W X N Y Z ` *  ...+.@.#.K $.%.&.*.=.' /       -.    ",
"  ' /   / c     ;.>.,.'.).T !.~.{.].2 ^./.(._.:.<.[.}.|.1.8 2.3.4.  ' -.    c ^ ",
"  Q           5.6.7.8.H '.9.0.a.b.b.c.d.e. .f.g.f B h.b.U i.j.k.l.m.n.    ^   / ",
"        c   o.p.e.e.: q.r.s.8 < t. .T 1.l i.U u. .b. .t.v.w.).).x.y.z.  c   c   ",
"  c c c     A.,.^.f B.C.D.E.b.f ^.1 F.H 9.G.H.I.,. .J.^.K.L.1.w.x.M.N.  . c   c ",
"      . c c O./.2 [.P.` Q.|.R.S.T.<.U.i V.f T.C.& W.,.C.= X.Y.Z.`.M. ++   . c   ",
"      c c .+++R.t.@+* #+$+%+l b.&+*+i /.2 A T.=+V -+h.;+>+r Y.,+`.M. ++   c c   ",
"        / + '+)+!+f 3 ~+z {+i.7.= ]+T ^+& ,.h./+o ..R.(+_+:+&.%.<+M.[+  . +   }+",
"      +   c . |+R.1+X 2+b.b.J. .H.2 3+o :.v.4+5+H 6+G.l 4+8 7+8+9+0+a+          ",
"  c     .     b+c+U l i.b.J.^.B (+d+e+(+f+g+8 0.h+I.r w.`.i+j+k+l+m+        Q   ",
"      +   / /   n+o+p+q+S.^.^.2 -+a.).H [ a.< _+r+s+t+u+v+w+x+.   /       +   + ",
"    /     / y+    . c z+d+2 ^.A+H {.{.0 B+C+D+E+F+G+H+r+8+I+J+    /   c   + + + ",
"/       c       ^     K+L+d+M+A i.o N+O+P+Q+R+S+T+U+V+W+X+Y+Z+        / c . +   ",
"/         c c           `+R.S. @u.g .@+@@@#@$@%@&@*@Y =@-@;@c + .   . / +   + + ",
"        c     ' '       >@,@'@..)@!@~@{@]@^@/@(@_@:@<@[@c .+}+c c }+  }+  c +   ",
"          c   ' Q ' '     }@|@1@2@3@4@5@6@7@8@9@0@a@b@  / +   c }+c }+c c + c c ",
"^ Q           ' ' /       -.c@d@e@f@g@h@i@j@k@l@m@n@  +   c .   c + c . c c   . ",
"        c c   c '   ' -.    o@p@q@r@s@t@u@v@w@x@y@      .     / . c + c + c }+  ",
"                  Q       ^ z@A@B@C@D@E@F@G@H@I@J@    +   / /     c + c .     + ",
".   .     '             c   K@L@M@N@O@P@Q@R@S@T@U@  /     / y+    . c       .   ",
"          .       . +   . c z@V@W@X@Y@Z@`@ #.#+#@#      c       ^     +       + ",
"        /   /   / +   +   . ##$#%#&#*#=#-#;#>#,#'#)#      c c                   ",
"    / /   /     +     +   c !#~#{#]#^#/#(#_#:#<#[#}#    c     ' '       u     c ",
"  /   / /   / / /   .   . + |#1#2#3#4#5#6#7#8#9#0#a#      c   ' Q ' '           ",
"    /   / /       / /     b#c#d#e#f#g#h#i#j#k#l#m#n#o#        ' ' /       -.    ",
"  ' /   / c               p#q#r#s#t#u#v#w#x#y#z#A#B#C#  c c   c '   ' -.    c ^ ",
"  Q           .   /       D#E#F#G#H#I#J#K#L#M#N#O#P#Q#            Q       ^   / ",
"        c         /   c R#S#T#U#V#W#X#W#Y#Z#`# $.$+$@$#$  '             c   c   ",
"  c c c     -.        / $$%$&$*$=$-${#;$>$,$'$)$!$~${$#$  .       . +   . c   c ",
"      . c c c + .   . / + ]$^$/$($_$:$<$[$}$|$1$2$3$4$  /   /   / +   +   . c   ",
"      c c .+}+c c }+  }+  c 5$6$7$8$9$0$a$b$c$c$d$e$/ /   /     +     +   c c   ",
"        / +   c }+c }+c c + f$g$h$i$j$k$l$m$n$7$o$p$  / /   / / /   .   . +   }+",
"      +   c .   c + c . c c q$r$s$t$u$v$w$x$y$z$A$B$/   / /       / /           ",
"  c     .     / . c + c + c C$D$E$F$G$H$I$J$K$L$M$c /   / c                 Q   ",
"      +   / /     c + c .   N$O$P$Q$R$S$T$U$V$W$X$Y$          .   /       +   + ",
"    /     / y+    . c       Z$`$ %.%S$S$S$+%@%#%$%%%    c         /   c   + + + "};
