/* XPM */
static char * 6_xpm[] = {
"40 40 40 1",
" 	c #C88050",
".	c #C8A040",
"+	c #A8D0F8",
"@	c #E0A040",
"#	c #D8A080",
"$	c #E0F8F8",
"%	c #C8E8F8",
"&	c #A08068",
"*	c #B86828",
"=	c #F8A040",
"-	c #F8F8F8",
";	c #A86040",
">	c #C86040",
",	c #A8A040",
"'	c #98A060",
")	c #B83878",
"!	c #D85090",
"~	c #F888B8",
"{	c #F870B0",
"]	c #F8A0C8",
"^	c #981858",
"/	c #ABE3A7",
"(	c #F8D0E0",
"_	c #806850",
":	c #F8B8D8",
"<	c #880050",
"[	c #000008",
"}	c #E0D078",
"|	c #C00000",
"1	c #F80000",
"2	c #703800",
"3	c #F8A800",
"4	c #D06000",
"5	c #A84800",
"6	c #606060",
"7	c #A0A0A0",
"8	c #D8D8D8",
"9	c #F87000",
"0	c #503000",
"a	c #382000",
"     .+++.@ .# ## #@.$%%    #   &  @   @",
"    *$$$%+ @ .# ##@$=$%$%    ##         ",
"  **%+-+$%+@ ## $$$$@$$%$%  # %;%   >  #",
" * *%-+-$%+ .@ =$-%+$%$$%+   %-%,;;     ",
"  * %--+$%+     $%$+.$%%      %;;*   '  ",
" ;* *+$$%%%   ,  ++@     ; %#%%+; ;'  #&",
" ,   %%%%%   @ @#. # # # ,%  %+  ,   & *",
"    # %%%* # @@@@ @ #    +. +; $+$  # # ",
" ###  '    *#.@ @@ @ .##%#%+ . +-%+ .# #",
"   .###@. .*@ @@@ @* #@ +   * +--%+@ .# ",
"   ##$$#+= = #@  @**)))%  ** * %%%+@ ## ",
"    $--+=#=+#@##+**)!~{+   ** *+++. .@ =",
"   @$-$+#+%-+# .+%)~]{^)) * **   **     ",
" #  .++*.#+%@#+  )!]~^/^{^* *#        , ",
"   @ **  #+%+%%@))](]^^/^^ % $ . *   @ @",
"  *  *_  .#+++.+%)]:]^!^  %-%    * # @@@",
"*   #   &  @   )++]]~)!)* #%  '    *#.@ ",
"*    ##       )~<){~{)[{) +.###@. .*@ @@",
"    #  ;;   > )~]~!!{{{{^+ ##}=##= = #@ ",
"     # ;,;;   )]~<~]~<{~^   *@ #=#=##@##",
"&,     ;;*   ')~)~]{:~)!), @ #. #@#.## .",
"    ## #; ;' )~)[)~!~)[){^  .  *.#@#@#= ",
"         ,   )~![[|)|[[!{^ @ **  #@#.  @",
". .  ;      # )!~[1~1[!!^ *  *_  .#   . ",
"     .   .@ .# ))!~]~!^^    #   &  @   @",
"    * * *@ @ )^)~))^^^!)^^   ##         ",
"  ** *  @  @)]{)!:~!~{!){!^ #  ;;   >  #",
" * ** *** . )~~^)!!)!!)^~!^  # ;,;;     ",
"  * **   ** 2){^^]~!~{^^{)2    ;;*   '  ",
" ;* *#     )[[)^[){){)[^)[[^## #; ;'  #&",
" ,     . *)~34[2[[555[[2[43{^    ,   & *",
"    #    *){~2[@6753576 [2{!^;      # # ",
" ###  '    )^.@ 86757-8# #^^ .   .@ .# #",
"   .###@. .*@ @6-8868786    * * *@ @ .# ",
"   ##}=##= = #@67876-676  ** *  @  @ ## ",
"    *@ #=#=##@67676 66676  ** *** . .@ =",
"   @ #. #@#.##[[[[   [[[[ * **   **     ",
" #  .  *.#@#@#2395[[[5392#* *#        , ",
"   @ **  #@#.0220a[[[a020a     . *   @ @",
"  *  *_  .#  aaaa[[[[[aaaa  #    * # @@@"};
