/* XPM */
static char * buu_xpm[] = {
"40 40 38 1",
" 	c None",
".	c #C88050",
"+	c #B86828",
"@	c #E0A040",
"#	c #D8A080",
"$	c #F8A040",
"%	c #A86040",
"&	c #C86040",
"*	c #C8A040",
"=	c #E0D078",
"-	c #A8A040",
";	c #98A060",
">	c #A08068",
",	c #B83878",
"'	c #D85090",
")	c #F888B8",
"!	c #F870B0",
"~	c #F8A0C8",
"{	c #981858",
"]	c #F8D0E0",
"^	c #F8B8D8",
"/	c #880050",
"(	c #806850",
"_	c #000008",
":	c #C00000",
"<	c #F80000",
"[	c #F87000",
"}	c #D06000",
"|	c #703800",
"1	c #282828",
"2	c #A84800",
"3	c #F8A800",
"4	c #606060",
"5	c #A0A0A0",
"6	c #D8D8D8",
"7	c #F8F8F8",
"8	c #503000",
"9	c #382000",
"..++.+..@..@.##.#.$#@#......#..%%...&..#",
".+.++.+++.*.*@.$=$#@#@*..+...#.%-%%.....",
"..+.++...++.....#$.#*..........%%+...;..",
".%+.+#........-..#$@.....%..##.#%.%;..#>",
".-.....*.+...@.@#*.#,,,#.-.......-...>.+",
"....#....+.#.@@@@.@,')!,..*..%......#.#.",
".###..;....+#*@.@@,)~!{,,#...*...*@.*#.#",
"...*###@*.*+@.@@@,'~){@{!{..+.+.+@.@.*#.",
"...##=$##$.$.#@.,,~]~{{.{{++.+..@..@.##.",
"....+@.#$#$##@#,!,~^~{'{...++.+++.*.*@.$",
"...@.#*.#@#*##.,!,~~),',..+.++...++.....",
".#..*..+*#@#@#,)/,!)!,/!,#+.+#........-.",
"...@.++..#@#*.,)~)''!!!!{......*.+...@.@",
"..+..+(..*#...,~)/)~)/!){...#....+.#.@@@",
"+...#...>..@..,),)~!^),',.##..;....+#*@.",
"+....##......,),_,)'),_,!{.*###@*.*+@.@@",
"....#..%%...&,)'__:,:__'!{.##=$##$.$.#@.",
".....#.%-%%...,'))<)<!''{...+@.#$#$##@##",
">-.....%%+...;.,,')~)'{{>-.@.#*.#@#*##.*",
"....##.#%.%;.,{,),,{{{',{{..*..+*#@#@#$.",
".........-..,^),'^)')!',!'{@.++..#@#*..@",
"*.*..%......{,,{,'','',{,,{..+(..*#...*.",
".....*...*@.,[}{{~)')!{{}[{.#...>..@...@",
"....+.+.+@.@|__1_,!,!,_1__|..##.........",
"..++.+..@..@__2|__222__|2__.#..%%...&..#",
".+.++.+++.*.|3[|4523254|[[|..#.%-%%.....",
"..+.++...++.,)!{6452576{!'{....%%+...;..",
".%+.+#.......,{476646564{{..##.#%.%;..#>",
".-.....*.+...@.456547454.-.......-...>.+",
"....#....+.#.@@_454.444_..*..%......#.#.",
".###..;....+#*@____@____.#...*...*@.*#.#",
"...*###@*.*+@.@|3[2_23[|....+.+.+@.@.*#.",
"...##=$##$.$.#8||89_98|89.++.+..@..@.##.",
"....+@.#$#$##@9999___9999..++.+++.*.*@.$",
"...@.#*.#@#*##.*________..+.++...++.....",
".#..*..+*#@#@#$.....++...#+.+#........-.",
"...@.++..#@#*..@......+........*.+...@.@",
"..+..+(..*#...*...+..*......#....+.#.@@@",
"+...#...>..@...@.@......+.##..;....+#*@.",
"+....##.........##.....++..*###@*.*+@.@@"};
